<svg width="14" height="8" viewBox="0 0 14 8" fill="none" xmlns="http://www.w3.org/2000/svg">
<path d="M12.1839 1.15535L6.82721 6.50568L6.78981 6.46828L1.46881 1.1528C1.41588 1.10235 1.34534 1.07456 1.27223 1.07536C1.19912 1.07615 1.1292 1.10547 1.07738 1.15705C1.02705 1.20927 0.999263 1.27918 1.00003 1.3517C0.999484 1.38823 1.00619 1.42451 1.01976 1.45843C1.03333 1.49236 1.05349 1.52325 1.07908 1.54933L6.61258 7.07603C6.63996 7.10261 6.6727 7.12304 6.70862 7.13594C6.74453 7.14884 6.78279 7.15392 6.82083 7.15083C6.86121 7.15491 6.90199 7.15019 6.94037 7.13698C6.97874 7.12378 7.0138 7.1024 7.04311 7.07433L12.5813 1.54337C12.679 1.43967 12.6803 1.2633 12.5728 1.15195C12.5201 1.10215 12.4502 1.07469 12.3777 1.07532C12.3052 1.07595 12.2357 1.10464 12.1839 1.15535Z" fill="#1A1A1A" stroke="#1A1A1A"/>
</svg>
