<svg width="65" height="65" viewBox="0 0 65 65" fill="none" xmlns="http://www.w3.org/2000/svg">
<path d="M49.669 27.7987C49.6039 27.7988 49.5395 27.786 49.4794 27.7611C49.4193 27.7362 49.3647 27.6997 49.3187 27.6537C49.2727 27.6077 49.2362 27.5531 49.2113 27.493C49.1864 27.4329 49.1736 27.3685 49.1737 27.3034L49.1737 15.8972L34.6171 30.4538C34.5243 30.5467 34.3984 30.5988 34.2671 30.5988C34.1358 30.5988 34.0099 30.5467 33.917 30.4538C33.8242 30.361 33.772 30.2351 33.772 30.1038C33.772 29.9725 33.8242 29.8466 33.917 29.7537L48.4736 15.1972L37.0674 15.1972C37.0024 15.1972 36.938 15.1843 36.8779 15.1595C36.8178 15.1346 36.7632 15.0981 36.7172 15.0521C36.6712 15.0061 36.6347 14.9515 36.6098 14.8914C36.5849 14.8313 36.5721 14.7669 36.5721 14.7018C36.5721 14.6368 36.5849 14.5724 36.6098 14.5123C36.6347 14.4522 36.6712 14.3976 36.7172 14.3516C36.7632 14.3056 36.8178 14.2691 36.8779 14.2442C36.938 14.2193 37.0024 14.2065 37.0674 14.2065L49.669 14.2065C49.7341 14.2065 49.7985 14.2193 49.8586 14.2442C49.9187 14.269 49.9733 14.3055 50.0193 14.3515C50.0653 14.3975 50.1018 14.4521 50.1267 14.5123C50.1516 14.5724 50.1643 14.6368 50.1643 14.7018L50.1643 27.3034C50.1643 27.3685 50.1516 27.4329 50.1267 27.493C50.1018 27.5531 50.0653 27.6077 50.0193 27.6537C49.9733 27.6997 49.9187 27.7362 49.8586 27.7611C49.7985 27.786 49.7341 27.7988 49.669 27.7987Z" fill="#2474FF" stroke="#2474FF"/>
<path d="M22.403 55.0982C22.3379 55.0983 22.2735 55.0855 22.2134 55.0606C22.1533 55.0357 22.0987 54.9992 22.0527 54.9532C22.0067 54.9072 21.9702 54.8526 21.9453 54.7925C21.9204 54.7324 21.9077 54.668 21.9077 54.6029L21.9077 43.1967L7.35112 57.7533C7.25828 57.8462 7.13237 57.8983 7.00108 57.8983C6.86978 57.8983 6.74387 57.8462 6.65103 57.7533C6.55819 57.6605 6.50604 57.5346 6.50604 57.4033C6.50604 57.272 6.5582 57.1461 6.65103 57.0532L21.2076 42.4967L9.80143 42.4967C9.73638 42.4967 9.67197 42.4838 9.61188 42.459C9.55178 42.4341 9.49718 42.3976 9.45119 42.3516C9.40519 42.3056 9.36871 42.251 9.34382 42.1909C9.31893 42.1308 9.30611 42.0664 9.30611 42.0013C9.30611 41.9363 9.31893 41.8719 9.34382 41.8118C9.36871 41.7517 9.40519 41.6971 9.45119 41.6511C9.49718 41.6051 9.55178 41.5686 9.61188 41.5437C9.67197 41.5188 9.73638 41.506 9.80143 41.506L22.403 41.506C22.4681 41.506 22.5325 41.5188 22.5926 41.5437C22.6527 41.5685 22.7073 41.605 22.7533 41.651C22.7993 41.697 22.8358 41.7516 22.8607 41.8118C22.8856 41.8719 22.8984 41.9363 22.8983 42.0013L22.8983 54.6029C22.8984 54.668 22.8856 54.7324 22.8607 54.7925C22.8358 54.8526 22.7993 54.9072 22.7533 54.9532C22.7073 54.9992 22.6527 55.0357 22.5926 55.0606C22.5325 55.0855 22.4681 55.0983 22.403 55.0982Z" fill="#2474FF" stroke="#2474FF"/>
</svg>
