<svg width="1293" height="502" viewBox="0 0 1293 502" fill="none" xmlns="http://www.w3.org/2000/svg">
<path fill-rule="evenodd" clip-rule="evenodd" d="M213.33 0C95.5109 0 0 97.6019 0 218C0 338.398 95.5109 436 213.33 436V0Z" fill="#141F39"/>
<path fill-rule="evenodd" clip-rule="evenodd" d="M213.329 106.316C178.165 106.316 149.658 135.447 149.658 171.381C149.658 207.315 178.165 236.446 213.329 236.446V106.316Z" fill="#2474FF"/>
<path fill-rule="evenodd" clip-rule="evenodd" d="M213.329 235.439C248.494 235.439 277 264.57 277 300.504C277 336.438 248.494 365.569 213.329 365.569V235.439Z" fill="#2474FF"/>
<path d="M474.02 235.017C459.394 235.017 445.643 232.133 432.768 226.365C419.893 220.494 408.563 212.408 398.778 202.108C389.096 191.808 381.474 179.912 375.912 166.419C370.453 152.823 367.724 138.3 367.724 122.85C367.724 107.297 370.453 92.774 375.912 79.281C381.474 65.685 389.096 53.7885 398.778 43.5915C408.563 33.2915 419.893 25.2575 432.768 19.4895C445.643 13.6185 459.394 10.683 474.02 10.683C491.53 10.683 507.649 14.7515 522.378 22.8885C537.107 30.9225 549.313 41.686 558.995 55.179L517.589 77.427C512.233 71.247 505.795 66.303 498.276 62.595C490.757 58.887 482.672 57.033 474.02 57.033C465.78 57.033 458.003 58.7325 450.69 62.1315C443.48 65.5305 437.094 70.2685 431.532 76.3455C426.073 82.3195 421.799 89.272 418.709 97.203C415.619 105.134 414.074 113.683 414.074 122.85C414.074 131.914 415.619 140.411 418.709 148.342C421.799 156.273 426.073 163.277 431.532 169.354C437.094 175.328 443.48 180.066 450.69 183.568C458.003 186.967 465.78 188.667 474.02 188.667C482.672 188.667 490.757 186.813 498.276 183.105C505.795 179.294 512.233 174.247 517.589 167.964L558.995 190.521C549.313 203.911 537.107 214.674 522.378 222.811C507.649 230.948 491.53 235.017 474.02 235.017ZM685.559 235.017C670.933 235.017 657.183 232.133 644.308 226.365C631.433 220.494 620.103 212.408 610.318 202.108C600.533 191.808 592.859 179.912 587.297 166.419C581.735 152.823 578.954 138.3 578.954 122.85C578.954 107.4 581.735 92.9285 587.297 79.4355C592.859 65.8395 600.533 53.8915 610.318 43.5915C620.103 33.2915 631.433 25.2575 644.308 19.4895C657.183 13.6185 670.933 10.683 685.559 10.683C700.288 10.683 714.09 13.6185 726.965 19.4895C739.84 25.2575 751.17 33.2915 760.955 43.5915C770.74 53.8915 778.362 65.8395 783.821 79.4355C789.383 92.9285 792.164 107.4 792.164 122.85C792.164 138.3 789.383 152.823 783.821 166.419C778.362 179.912 770.74 191.808 760.955 202.108C751.17 212.408 739.84 220.494 726.965 226.365C714.09 232.133 700.288 235.017 685.559 235.017ZM685.559 188.667C693.799 188.667 701.524 186.967 708.734 183.568C716.047 180.066 722.485 175.328 728.047 169.354C733.609 163.277 737.935 156.273 741.025 148.342C744.218 140.411 745.814 131.914 745.814 122.85C745.814 113.786 744.218 105.288 741.025 97.3575C737.935 89.4265 733.609 82.474 728.047 76.5C722.485 70.423 716.047 65.685 708.734 62.286C701.524 58.784 693.799 57.033 685.559 57.033C677.319 57.033 669.543 58.784 662.23 62.286C655.02 65.685 648.634 70.423 643.072 76.5C637.51 82.474 633.132 89.4265 629.939 97.3575C626.849 105.288 625.304 113.786 625.304 122.85C625.304 131.914 626.849 140.411 629.939 148.342C633.132 156.273 637.51 163.277 643.072 169.354C648.634 175.328 655.02 180.066 662.23 183.568C669.543 186.967 677.319 188.667 685.559 188.667ZM818.393 231V14.7H890.081C905.016 14.7 918.973 17.5325 931.951 23.1975C945.032 28.7595 956.516 36.536 966.404 46.527C976.395 56.415 984.172 67.8995 989.734 80.9805C995.399 93.9585 998.231 107.915 998.231 122.85C998.231 137.785 995.399 151.793 989.734 164.874C984.172 177.852 976.395 189.336 966.404 199.327C956.516 209.215 945.032 216.992 931.951 222.657C918.973 228.219 905.016 231 890.081 231H818.393ZM864.743 184.65H890.081C898.424 184.65 906.304 183.053 913.72 179.86C921.136 176.667 927.728 172.238 933.496 166.573C939.264 160.908 943.744 154.368 946.937 146.952C950.233 139.433 951.881 131.399 951.881 122.85C951.881 114.301 950.233 106.318 946.937 98.9025C943.744 91.4865 939.264 84.946 933.496 79.281C927.831 73.513 921.29 69.0325 913.874 65.8395C906.458 62.6465 898.527 61.05 890.081 61.05H864.743V184.65ZM1021.48 231V14.7H1159.29V61.05H1067.83V91.95H1138.28V138.3H1067.83V184.65H1159.29V231H1021.48Z" fill="#141F39"/>
<path d="M442.054 427.09C433.196 427.09 424.544 425.597 416.098 422.609C407.755 419.622 400.493 415.605 394.313 410.558C388.133 405.511 383.962 399.898 381.799 393.718L390.451 390.01C392.408 395.572 396.219 400.464 401.884 404.688C407.652 408.807 414.141 412.052 421.351 414.421C428.664 416.687 435.565 417.82 442.054 417.82C450.088 417.82 457.607 416.429 464.611 413.648C471.615 410.764 477.28 406.799 481.606 401.752C485.932 396.705 488.095 390.834 488.095 384.139C488.095 377.135 485.829 371.624 481.297 367.607C476.868 363.487 471.1 360.14 463.993 357.565C456.989 354.99 449.676 352.518 442.054 350.149C430.209 346.441 420.115 342.939 411.772 339.643C403.532 336.347 397.249 332.278 392.923 327.438C388.597 322.493 386.434 315.747 386.434 307.198C386.434 298.443 389.06 290.872 394.313 284.486C399.566 277.997 406.416 273.002 414.862 269.5C423.308 265.998 432.372 264.247 442.054 264.247C454.929 264.247 466.516 267.131 476.816 272.899C487.219 278.564 494.275 285.877 497.983 294.838L489.949 299.473C487.786 294.014 484.129 289.379 478.979 285.568C473.932 281.654 468.113 278.667 461.521 276.607C455.032 274.547 448.543 273.517 442.054 273.517C433.917 273.517 426.295 274.907 419.188 277.688C412.184 280.366 406.519 284.229 402.193 289.276C397.867 294.323 395.704 300.297 395.704 307.198C395.704 314.305 397.506 319.764 401.111 323.575C404.819 327.283 410.124 330.321 417.025 332.69C423.926 335.059 432.269 337.789 442.054 340.879C451.736 343.969 460.748 347.213 469.091 350.612C477.537 354.011 484.335 358.337 489.485 363.59C494.738 368.74 497.365 375.59 497.365 384.139C497.365 392.894 494.738 400.516 489.485 407.005C484.335 413.391 477.537 418.335 469.091 421.837C460.645 425.339 451.633 427.09 442.054 427.09ZM518 363.281V269.5H527.27V363.281C527.27 373.478 529.742 382.8 534.686 391.246C539.733 399.589 546.428 406.284 554.771 411.331C563.217 416.275 572.539 418.747 582.736 418.747C592.933 418.747 602.203 416.275 610.546 411.331C618.992 406.284 625.687 399.589 630.631 391.246C635.678 382.8 638.201 373.478 638.201 363.281V269.5H647.471V424H638.201V396.653C632.536 406.026 624.811 413.597 615.026 419.365C605.241 425.133 594.478 428.017 582.736 428.017C570.788 428.017 559.921 425.133 550.136 419.365C540.351 413.494 532.523 405.666 526.652 395.881C520.884 386.096 518 375.229 518 363.281ZM687.648 501.25H678.378V269.5H687.648V305.653C693.21 293.602 701.347 283.92 712.059 276.607C722.874 269.191 735.749 265.483 750.684 265.483C761.911 265.483 772.417 267.594 782.202 271.817C791.987 276.04 800.588 281.911 808.004 289.43C815.523 296.846 821.394 305.447 825.617 315.232C829.84 325.017 831.951 335.523 831.951 346.75C831.951 357.977 829.84 368.534 825.617 378.422C821.394 388.31 815.523 397.014 808.004 404.533C800.588 411.949 791.987 417.768 782.202 421.991C772.417 426.215 761.911 428.326 750.684 428.326C735.749 428.326 722.874 424.67 712.059 417.356C701.347 409.94 693.21 400.207 687.648 388.156V501.25ZM750.684 274.753C737.603 274.753 726.376 277.997 717.003 284.486C707.733 290.872 700.626 299.524 695.682 310.442C690.738 321.257 688.266 333.36 688.266 346.75C688.266 359.934 690.687 372.036 695.528 383.057C700.369 393.975 707.424 402.73 716.694 409.322C726.067 415.811 737.397 419.056 750.684 419.056C763.559 419.056 775.456 415.863 786.374 409.477C797.292 403.091 806.047 394.439 812.639 383.521C819.334 372.603 822.681 360.346 822.681 346.75C822.681 333.566 819.437 321.515 812.948 310.597C806.562 299.679 797.91 290.975 786.992 284.486C776.074 277.997 763.971 274.753 750.684 274.753ZM924.697 428.017C910.483 428.017 897.505 424.36 885.763 417.047C874.124 409.734 864.803 399.949 857.799 387.692C850.898 375.332 847.447 361.685 847.447 346.75C847.447 335.42 849.456 324.862 853.473 315.077C857.49 305.189 863 296.537 870.004 289.121C877.111 281.602 885.351 275.731 894.724 271.508C904.097 267.285 914.088 265.174 924.697 265.174C935.718 265.174 945.864 267.234 955.134 271.354C964.404 275.474 972.489 281.345 979.39 288.967C986.291 296.589 991.647 305.704 995.458 316.313C999.372 326.819 1001.43 338.51 1001.64 351.385H856.717C857.747 364.26 861.404 375.796 867.687 385.993C874.073 396.087 882.21 404.069 892.098 409.94C901.986 415.811 912.852 418.747 924.697 418.747C937.881 418.747 949.726 415.245 960.232 408.241C970.738 401.237 979.081 391.555 985.261 379.195L994.531 381.358C988.351 395.057 979.03 406.284 966.567 415.039C954.104 423.691 940.147 428.017 924.697 428.017ZM856.717 342.115H992.368C991.956 330.064 988.66 318.888 982.48 308.588C976.3 298.288 968.163 290.048 958.069 283.868C947.975 277.585 936.851 274.444 924.697 274.444C912.44 274.444 901.316 277.482 891.325 283.559C881.437 289.636 873.403 297.825 867.223 308.125C861.043 318.322 857.541 329.652 856.717 342.115ZM1029.32 424V269.5H1038.59V296.537C1044.26 287.061 1051.98 279.491 1061.77 273.826C1071.55 268.058 1082.32 265.174 1094.06 265.174C1100.14 265.174 1105.95 265.946 1111.52 267.491L1107.5 276.143C1102.97 275.01 1098.49 274.444 1094.06 274.444C1083.86 274.444 1074.54 276.967 1066.09 282.014C1057.75 286.958 1051.06 293.602 1046.01 301.945C1041.06 310.288 1038.59 319.609 1038.59 329.909V424H1029.32ZM1202.42 265.174C1217.35 265.174 1230.95 268.83 1243.2 276.143C1255.56 283.456 1265.4 293.293 1272.71 305.653C1280.03 318.013 1283.68 331.712 1283.68 346.75C1283.68 357.977 1281.57 368.483 1277.35 378.268C1273.13 388.053 1267.25 396.705 1259.74 404.224C1252.32 411.64 1243.72 417.459 1233.93 421.682C1224.15 425.906 1213.64 428.017 1202.42 428.017C1187.48 428.017 1174.61 424.36 1163.79 417.047C1153.08 409.631 1144.94 399.898 1139.38 387.847V424H1130.11V192.25H1139.38V305.344C1144.94 293.293 1153.08 283.611 1163.79 276.298C1174.61 268.882 1187.48 265.174 1202.42 265.174ZM1202.42 418.747C1215.7 418.747 1227.81 415.502 1238.72 409.013C1249.64 402.524 1258.29 393.821 1264.68 382.903C1271.17 371.985 1274.41 359.934 1274.41 346.75C1274.41 333.154 1271.07 320.897 1264.37 309.979C1257.78 299.061 1249.02 290.409 1238.11 284.023C1227.19 277.637 1215.29 274.444 1202.42 274.444C1189.13 274.444 1177.8 277.74 1168.43 284.332C1159.16 290.821 1152.1 299.576 1147.26 310.597C1142.42 321.515 1140 333.566 1140 346.75C1140 360.14 1142.47 372.294 1147.41 383.212C1152.36 394.027 1159.46 402.679 1168.73 409.168C1178.11 415.554 1189.33 418.747 1202.42 418.747Z" fill="#2474FF"/>
</svg>
