<svg width="595" height="315" viewBox="0 0 595 315" fill="none" xmlns="http://www.w3.org/2000/svg">
<path d="M100.812 235.545L74.792 313H42.5192L16.4994 235.545H45.7465L58.2522 286.778H59.059L71.5647 235.545H100.812ZM130.705 314.412C122.435 314.412 115.308 312.832 109.324 309.672C103.374 306.478 98.7852 301.906 95.558 295.956C92.3643 289.972 90.7675 282.812 90.7675 274.474C90.7675 266.473 92.3811 259.481 95.6084 253.497C98.8357 247.513 103.391 242.857 109.274 239.529C115.157 236.201 122.099 234.537 130.1 234.537C135.949 234.537 141.244 235.445 145.984 237.26C150.724 239.075 154.775 241.714 158.137 245.177C161.499 248.606 164.087 252.774 165.902 257.683C167.718 262.591 168.625 268.121 168.625 274.273V280.727H99.4408V265.398H143.009C142.975 263.179 142.404 261.229 141.294 259.548C140.219 257.834 138.756 256.506 136.907 255.565C135.092 254.59 133.025 254.102 130.705 254.102C128.453 254.102 126.385 254.59 124.503 255.565C122.62 256.506 121.107 257.817 119.964 259.498C118.855 261.179 118.267 263.145 118.199 265.398V281.938C118.199 284.425 118.72 286.644 119.763 288.594C120.805 290.544 122.301 292.073 124.25 293.183C126.2 294.292 128.553 294.847 131.31 294.847C133.226 294.847 134.974 294.578 136.554 294.04C138.168 293.502 139.546 292.729 140.689 291.72C141.832 290.678 142.673 289.434 143.211 287.989H168.625C167.751 293.367 165.684 298.04 162.423 302.007C159.162 305.94 154.842 309 149.463 311.185C144.118 313.336 137.865 314.412 130.705 314.412ZM195.039 269.432V313H167.204V235.545H193.627V250.27H194.434C196.115 245.362 199.073 241.513 203.309 238.722C207.578 235.932 212.554 234.537 218.235 234.537C223.715 234.537 228.472 235.798 232.506 238.319C236.573 240.807 239.717 244.236 241.935 248.606C244.188 252.976 245.297 257.968 245.264 263.582V313H217.428V269.432C217.462 265.599 216.487 262.591 214.504 260.406C212.554 258.22 209.831 257.128 206.335 257.128C204.049 257.128 202.048 257.632 200.334 258.641C198.653 259.616 197.359 261.027 196.451 262.876C195.543 264.692 195.073 266.877 195.039 269.432ZM292.415 235.545V255.716H241.384V235.545H292.415ZM251.267 216.989H279.103V288.089C279.103 289.165 279.287 290.073 279.657 290.812C280.027 291.518 280.599 292.056 281.372 292.426C282.145 292.762 283.137 292.93 284.347 292.93C285.187 292.93 286.162 292.83 287.272 292.628C288.415 292.426 289.255 292.258 289.793 292.124L293.827 311.689C292.583 312.059 290.801 312.513 288.482 313.05C286.196 313.588 283.473 313.941 280.313 314.109C273.925 314.446 268.563 313.79 264.227 312.143C259.89 310.462 256.629 307.823 254.444 304.226C252.259 300.629 251.2 296.124 251.267 290.712V216.989ZM341.218 279.114V235.545H369.053V313H342.63V298.276H341.823C340.142 303.217 337.201 307.083 332.999 309.874C328.796 312.63 323.804 314.009 318.022 314.009C312.61 314.009 307.869 312.765 303.802 310.277C299.768 307.789 296.624 304.36 294.372 299.99C292.153 295.62 291.027 290.611 290.994 284.963V235.545H318.829V279.114C318.862 282.946 319.837 285.955 321.753 288.14C323.703 290.325 326.426 291.418 329.923 291.418C332.242 291.418 334.242 290.93 335.923 289.955C337.638 288.947 338.949 287.535 339.856 285.719C340.798 283.871 341.252 281.669 341.218 279.114ZM370.43 313V235.545H397.459V250.27H398.266C399.677 244.824 401.913 240.84 404.972 238.319C408.065 235.798 411.679 234.537 415.814 234.537C417.024 234.537 418.217 234.638 419.394 234.839C420.604 235.008 421.764 235.26 422.874 235.596V259.347C421.495 258.876 419.798 258.523 417.78 258.288C415.763 258.052 414.032 257.935 412.587 257.935C409.864 257.935 407.409 258.557 405.224 259.8C403.073 261.011 401.375 262.725 400.131 264.944C398.887 267.129 398.266 269.701 398.266 272.659V313H370.43ZM451.897 314.412C443.627 314.412 436.5 312.832 430.516 309.672C424.566 306.478 419.977 301.906 416.75 295.956C413.556 289.972 411.959 282.812 411.959 274.474C411.959 266.473 413.573 259.481 416.8 253.497C420.027 247.513 424.583 242.857 430.466 239.529C436.349 236.201 443.291 234.537 451.292 234.537C457.141 234.537 462.436 235.445 467.176 237.26C471.916 239.075 475.967 241.714 479.329 245.177C482.69 248.606 485.279 252.774 487.094 257.683C488.91 262.591 489.817 268.121 489.817 274.273V280.727H420.633V265.398H464.201C464.167 263.179 463.596 261.229 462.486 259.548C461.411 257.834 459.948 256.506 458.099 255.565C456.284 254.59 454.216 254.102 451.897 254.102C449.644 254.102 447.577 254.59 445.694 255.565C443.812 256.506 442.299 257.817 441.156 259.498C440.047 261.179 439.458 263.145 439.391 265.398V281.938C439.391 284.425 439.912 286.644 440.954 288.594C441.996 290.544 443.492 292.073 445.442 293.183C447.392 294.292 449.745 294.847 452.502 294.847C454.418 294.847 456.166 294.578 457.746 294.04C459.36 293.502 460.738 292.729 461.881 291.72C463.024 290.678 463.865 289.434 464.402 287.989H489.817C488.943 293.367 486.876 298.04 483.615 302.007C480.354 305.94 476.034 309 470.655 311.185C465.31 313.336 459.057 314.412 451.897 314.412ZM559.194 260.759H533.578C533.443 259.179 532.888 257.817 531.913 256.674C530.939 255.531 529.678 254.657 528.132 254.052C526.619 253.413 524.938 253.094 523.089 253.094C520.702 253.094 518.651 253.531 516.937 254.405C515.222 255.279 514.382 256.523 514.416 258.136C514.382 259.279 514.869 260.338 515.878 261.313C516.92 262.288 518.92 263.045 521.879 263.582L537.612 266.406C545.545 267.852 551.445 270.289 555.311 273.718C559.211 277.113 561.177 281.669 561.211 287.384C561.177 292.897 559.53 297.687 556.269 301.755C553.042 305.789 548.621 308.915 543.007 311.134C537.427 313.319 531.056 314.412 523.896 314.412C512.062 314.412 502.801 311.991 496.111 307.151C489.455 302.31 485.74 295.922 484.967 287.989H512.6C512.97 290.443 514.18 292.342 516.231 293.687C518.315 294.998 520.937 295.653 524.097 295.653C526.652 295.653 528.753 295.216 530.401 294.342C532.082 293.468 532.939 292.224 532.972 290.611C532.939 289.132 532.199 287.955 530.754 287.081C529.342 286.207 527.123 285.501 524.097 284.963L510.382 282.543C502.481 281.164 496.565 278.542 492.632 274.676C488.698 270.81 486.748 265.835 486.782 259.75C486.748 254.371 488.16 249.816 491.018 246.085C493.909 242.319 498.027 239.462 503.372 237.512C508.751 235.529 515.122 234.537 522.484 234.537C533.678 234.537 542.503 236.857 548.958 241.496C555.446 246.135 558.858 252.556 559.194 260.759Z" fill="#3276EE"/>
<path d="M82.3904 82.0909V113.057H2.80802V82.0909H82.3904ZM17.9813 201V78.6847C17.9813 68.8788 19.7361 60.7502 23.2455 54.299C26.755 47.8478 31.7095 43.0222 38.1092 39.8224C44.5088 36.6226 52.0438 35.0227 60.7143 35.0227C66.1333 35.0227 71.3975 35.4356 76.5069 36.2614C81.6679 37.0871 85.487 37.8097 87.9643 38.429L81.7711 69.0852C80.2228 68.6207 78.4165 68.2595 76.3521 68.0014C74.2877 67.6918 72.4813 67.5369 70.933 67.5369C66.9075 67.5369 64.1979 68.3885 62.8045 70.0916C61.411 71.7947 60.7143 74.0398 60.7143 76.8267V201H17.9813ZM92.2368 202.858C84.6501 202.858 77.9409 201.619 72.109 199.142C66.3286 196.613 61.787 192.794 58.484 187.685C55.1809 182.575 53.5294 176.072 53.5294 168.176C53.5294 161.673 54.639 156.125 56.8582 151.532C59.0775 146.887 62.1741 143.094 66.148 140.152C70.122 137.21 74.7411 134.965 80.0053 133.417C85.3211 131.869 91.0498 130.862 97.1913 130.398C103.849 129.882 109.191 129.262 113.216 128.54C117.293 127.766 120.235 126.708 122.041 125.366C123.848 123.972 124.751 122.14 124.751 119.869V119.56C124.751 116.463 123.564 114.089 121.19 112.438C118.816 110.786 115.771 109.96 112.055 109.96C107.978 109.96 104.649 110.863 102.068 112.67C99.5396 114.424 98.0171 117.134 97.501 120.798H58.1743C58.6904 113.573 60.987 106.915 65.0642 100.825C69.193 94.6837 75.2055 89.7808 83.1019 86.1165C90.9982 82.4006 100.856 80.5426 112.674 80.5426C121.19 80.5426 128.828 81.549 135.589 83.5618C142.35 85.523 148.104 88.2841 152.853 91.8452C157.601 95.3546 161.213 99.4834 163.691 104.232C166.22 108.928 167.484 114.037 167.484 119.56V201H127.538V184.278H126.609C124.235 188.717 121.345 192.304 117.938 195.039C114.584 197.774 110.739 199.761 106.404 201C102.12 202.239 97.3978 202.858 92.2368 202.858ZM106.171 175.918C109.423 175.918 112.468 175.247 115.306 173.905C118.197 172.563 120.545 170.628 122.351 168.099C124.157 165.57 125.061 162.499 125.061 158.886V148.977C123.925 149.442 122.712 149.88 121.422 150.293C120.184 150.706 118.842 151.093 117.397 151.455C116.003 151.816 114.506 152.151 112.907 152.461C111.358 152.771 109.733 153.054 108.029 153.312C104.726 153.829 102.017 154.68 99.9009 155.867C97.8365 157.003 96.2882 158.422 95.256 160.125C94.2754 161.777 93.7851 163.634 93.7851 165.699C93.7851 169.002 94.9463 171.531 97.2688 173.286C99.5912 175.04 102.559 175.918 106.171 175.918ZM261.712 120.798H222.386C222.179 118.373 221.328 116.282 219.831 114.528C218.334 112.773 216.399 111.431 214.025 110.502C211.702 109.522 209.122 109.031 206.283 109.031C202.619 109.031 199.471 109.702 196.839 111.044C194.207 112.386 192.917 114.295 192.968 116.773C192.917 118.527 193.665 120.153 195.213 121.65C196.813 123.147 199.884 124.308 204.426 125.134L228.579 129.469C240.759 131.688 249.816 135.43 255.752 140.694C261.738 145.906 264.757 152.9 264.809 161.673C264.757 170.137 262.229 177.492 257.222 183.737C252.268 189.93 245.481 194.729 236.862 198.136C228.295 201.49 218.515 203.168 207.522 203.168C189.355 203.168 175.137 199.452 164.867 192.02C154.648 184.588 148.945 174.782 147.758 162.602H190.181C190.749 166.37 192.607 169.286 195.755 171.35C198.955 173.363 202.98 174.369 207.832 174.369C211.754 174.369 214.98 173.698 217.509 172.357C220.089 171.015 221.405 169.105 221.457 166.628C221.405 164.357 220.27 162.551 218.051 161.209C215.883 159.867 212.477 158.783 207.832 157.957L186.775 154.241C174.647 152.125 165.563 148.1 159.525 142.165C153.487 136.23 150.493 128.591 150.545 119.25C150.493 110.992 152.661 103.999 157.048 98.2706C161.486 92.4903 167.808 88.1035 176.014 85.1101C184.272 82.0651 194.052 80.5426 205.354 80.5426C222.541 80.5426 236.088 84.1037 245.997 91.2259C255.958 98.348 261.196 108.205 261.712 120.798ZM303.589 203.168C290.687 203.168 279.642 200.613 270.456 195.504C261.269 190.343 254.224 183.169 249.321 173.982C244.418 164.744 241.967 154.035 241.967 141.855C241.967 129.675 244.418 118.992 249.321 109.805C254.224 100.567 261.269 93.3935 270.456 88.2841C279.642 83.1231 290.687 80.5426 303.589 80.5426C315.253 80.5426 325.343 82.6586 333.858 86.8906C342.426 91.071 349.057 97.0062 353.754 104.696C358.45 112.334 360.825 121.314 360.876 131.636H321.24C320.672 125.392 318.866 120.643 315.821 117.392C312.827 114.089 308.957 112.438 304.209 112.438C300.493 112.438 297.241 113.521 294.454 115.689C291.667 117.805 289.5 121.031 287.951 125.366C286.403 129.649 285.629 135.043 285.629 141.545C285.629 148.048 286.403 153.467 287.951 157.803C289.5 162.086 291.667 165.312 294.454 167.479C297.241 169.595 300.493 170.653 304.209 170.653C307.357 170.653 310.144 169.931 312.569 168.486C314.995 166.989 316.956 164.821 318.453 161.983C320.001 159.093 320.93 155.583 321.24 151.455H360.876C360.721 161.931 358.321 171.066 353.677 178.859C349.032 186.601 342.451 192.588 333.936 196.82C325.472 201.052 315.356 203.168 303.589 203.168Z" fill="#1A1A1A"/>
<path d="M377 121.5C377 72.0705 417.071 32 466.5 32H470C521.362 32 563 73.6375 563 125V211H466.5C417.071 211 377 170.929 377 121.5V121.5Z" fill="url(#paint0_linear_89_72)"/>
<g filter="url(#filter0_d_89_72)">
<path d="M448 98.1162L448 80.0054L509.818 100.41L509.818 123.351L448 143.755L448 125.645L492.794 112.122L492.794 111.639L448 98.1162ZM472.389 94.7356L472.389 128.784L459.832 128.784L459.832 94.7356L472.389 94.7356ZM448 144.001L494.364 144.001L494.364 160.663L448 160.663L448 144.001ZM499.193 152.332C499.193 150.078 499.938 148.146 501.427 146.536C502.916 144.927 504.707 144.122 506.8 144.122C508.893 144.122 510.683 144.927 512.173 146.536C513.662 148.146 514.406 150.078 514.406 152.332C514.406 154.606 513.662 156.538 512.173 158.127C510.683 159.737 508.893 160.542 506.8 160.542C504.707 160.542 502.916 159.737 501.427 158.127C499.938 156.538 499.193 154.606 499.193 152.332Z" fill="white"/>
</g>
<path d="M472.619 105.379L459.619 101.434V121.922L472.619 117.996V105.379Z" fill="url(#paint1_linear_89_72)"/>
<defs>
<filter id="filter0_d_89_72" x="423" y="59.0054" width="116.406" height="130.657" filterUnits="userSpaceOnUse" color-interpolation-filters="sRGB">
<feFlood flood-opacity="0" result="BackgroundImageFix"/>
<feColorMatrix in="SourceAlpha" type="matrix" values="0 0 0 0 0 0 0 0 0 0 0 0 0 0 0 0 0 0 127 0" result="hardAlpha"/>
<feOffset dy="4"/>
<feGaussianBlur stdDeviation="12.5"/>
<feComposite in2="hardAlpha" operator="out"/>
<feColorMatrix type="matrix" values="0 0 0 0 0.101961 0 0 0 0 0.101961 0 0 0 0 0.101961 0 0 0 0.25 0"/>
<feBlend mode="normal" in2="BackgroundImageFix" result="effect1_dropShadow_89_72"/>
<feBlend mode="normal" in="SourceGraphic" in2="effect1_dropShadow_89_72" result="shape"/>
</filter>
<linearGradient id="paint0_linear_89_72" x1="413" y1="51" x2="515.171" y2="237.239" gradientUnits="userSpaceOnUse">
<stop stop-color="#00C2FF"/>
<stop offset="1" stop-color="#000AFF" stop-opacity="0.97"/>
</linearGradient>
<linearGradient id="paint1_linear_89_72" x1="472.365" y1="111.678" x2="459.873" y2="111.678" gradientUnits="userSpaceOnUse">
<stop stop-color="#0567D1"/>
<stop offset="1" stop-color="#036EDD"/>
</linearGradient>
</defs>
</svg>
