<svg width="595" height="177" viewBox="0 0 595 177" fill="none" xmlns="http://www.w3.org/2000/svg">
<path d="M82.3904 55.0909V86.0568H2.80802V55.0909H82.3904ZM17.9813 174V51.6847C17.9813 41.8788 19.7361 33.7502 23.2455 27.299C26.755 20.8478 31.7095 16.0222 38.1092 12.8224C44.5088 9.62262 52.0438 8.02272 60.7143 8.02272C66.1333 8.02272 71.3975 8.4356 76.5069 9.26136C81.6679 10.0871 85.487 10.8097 87.9643 11.429L81.7711 42.0852C80.2228 41.6207 78.4165 41.2595 76.3521 41.0014C74.2877 40.6918 72.4813 40.5369 70.933 40.5369C66.9075 40.5369 64.1979 41.3885 62.8045 43.0916C61.411 44.7947 60.7143 47.0398 60.7143 49.8267V174H17.9813ZM92.2368 175.858C84.6501 175.858 77.9409 174.619 72.109 172.142C66.3286 169.613 61.787 165.794 58.484 160.685C55.1809 155.575 53.5294 149.072 53.5294 141.176C53.5294 134.673 54.639 129.125 56.8582 124.532C59.0775 119.887 62.1741 116.094 66.148 113.152C70.122 110.21 74.7411 107.965 80.0053 106.417C85.3211 104.869 91.0498 103.862 97.1913 103.398C103.849 102.882 109.191 102.262 113.216 101.54C117.293 100.766 120.235 99.7076 122.041 98.3658C123.848 96.9723 124.751 95.1402 124.751 92.8693V92.5597C124.751 89.4631 123.564 87.089 121.19 85.4375C118.816 83.786 115.771 82.9602 112.055 82.9602C107.978 82.9602 104.649 83.8634 102.068 85.6697C99.5396 87.4245 98.0171 90.134 97.501 93.7983H58.1743C58.6904 86.5729 60.987 79.9152 65.0642 73.8253C69.193 67.6837 75.2055 62.7808 83.1019 59.1165C90.9982 55.4006 100.856 53.5426 112.674 53.5426C121.19 53.5426 128.828 54.549 135.589 56.5618C142.35 58.523 148.104 61.2841 152.853 64.8452C157.601 68.3546 161.213 72.4834 163.691 77.2315C166.22 81.928 167.484 87.0374 167.484 92.5597V174H127.538V157.278H126.609C124.235 161.717 121.345 165.304 117.938 168.039C114.584 170.774 110.739 172.761 106.404 174C102.12 175.239 97.3978 175.858 92.2368 175.858ZM106.171 148.918C109.423 148.918 112.468 148.247 115.306 146.905C118.197 145.563 120.545 143.628 122.351 141.099C124.157 138.57 125.061 135.499 125.061 131.886V121.977C123.925 122.442 122.712 122.88 121.422 123.293C120.184 123.706 118.842 124.093 117.397 124.455C116.003 124.816 114.506 125.151 112.907 125.461C111.358 125.771 109.733 126.054 108.029 126.312C104.726 126.829 102.017 127.68 99.9009 128.867C97.8365 130.003 96.2882 131.422 95.256 133.125C94.2754 134.777 93.7851 136.634 93.7851 138.699C93.7851 142.002 94.9463 144.531 97.2688 146.286C99.5912 148.04 102.559 148.918 106.171 148.918Z" fill="#1A1A1A"/>
<path d="M261.712 93.7983H222.386C222.179 91.3726 221.328 89.2824 219.831 87.5277C218.334 85.773 216.399 84.4311 214.025 83.5021C211.702 82.5215 209.122 82.0312 206.283 82.0312C202.619 82.0312 199.471 82.7022 196.839 84.044C194.207 85.3859 192.917 87.2955 192.968 89.7727C192.917 91.5275 193.665 93.1532 195.213 94.6499C196.813 96.1465 199.884 97.3078 204.426 98.1335L228.579 102.469C240.759 104.688 249.816 108.43 255.752 113.694C261.738 118.906 264.757 125.9 264.809 134.673C264.757 143.137 262.229 150.492 257.222 156.737C252.268 162.93 245.481 167.729 236.862 171.136C228.295 174.49 218.515 176.168 207.522 176.168C189.355 176.168 175.137 172.452 164.867 165.02C154.648 157.588 148.945 147.782 147.758 135.602H190.181C190.749 139.37 192.607 142.286 195.755 144.35C198.955 146.363 202.98 147.369 207.832 147.369C211.754 147.369 214.98 146.698 217.509 145.357C220.089 144.015 221.405 142.105 221.457 139.628C221.405 137.357 220.27 135.551 218.051 134.209C215.883 132.867 212.477 131.783 207.832 130.957L186.775 127.241C174.647 125.125 165.563 121.1 159.525 115.165C153.487 109.23 150.493 101.591 150.545 92.25C150.493 83.9924 152.661 76.9993 157.048 71.2706C161.486 65.4903 167.808 61.1035 176.014 58.1101C184.272 55.0651 194.052 53.5426 205.354 53.5426C222.541 53.5426 236.088 57.1037 245.997 64.2259C255.958 71.348 261.196 81.2055 261.712 93.7983ZM303.589 176.168C290.687 176.168 279.642 173.613 270.456 168.504C261.269 163.343 254.224 156.169 249.321 146.982C244.418 137.744 241.967 127.035 241.967 114.855C241.967 102.675 244.418 91.9919 249.321 82.8054C254.224 73.5672 261.269 66.3935 270.456 61.2841C279.642 56.1231 290.687 53.5426 303.589 53.5426C315.253 53.5426 325.343 55.6586 333.858 59.8906C342.426 64.071 349.057 70.0062 353.754 77.696C358.45 85.3343 360.825 94.3144 360.876 104.636H321.24C320.672 98.3916 318.866 93.6435 315.821 90.392C312.827 87.089 308.957 85.4375 304.209 85.4375C300.493 85.4375 297.241 86.5213 294.454 88.6889C291.667 90.8049 289.5 94.0305 287.951 98.3658C286.403 102.649 285.629 108.043 285.629 114.545C285.629 121.048 286.403 126.467 287.951 130.803C289.5 135.086 291.667 138.312 294.454 140.479C297.241 142.595 300.493 143.653 304.209 143.653C307.357 143.653 310.144 142.931 312.569 141.486C314.995 139.989 316.956 137.821 318.453 134.983C320.001 132.093 320.93 128.583 321.24 124.455H360.876C360.721 134.931 358.321 144.066 353.677 151.859C349.032 159.601 342.451 165.588 333.936 169.82C325.472 174.052 315.356 176.168 303.589 176.168Z" fill="#3276EE"/>
<g filter="url(#filter0_i_87_55)">
<path d="M390.809 167.25H389.429V165.41H385.749V164.03H389.429V160.81H380.689V159.43H389.429V156.21H387.129C386.209 156.363 385.289 156.44 384.369 156.44C384.062 156.44 383.679 156.517 383.219 156.67C382.759 156.67 382.299 156.593 381.839 156.44C381.686 156.44 381.532 156.363 381.379 156.21H377.929V154.83H378.849C378.236 154.523 377.776 154.217 377.469 153.91C377.316 153.757 377.162 153.603 377.009 153.45H376.779V152.99C376.626 152.683 376.472 152.453 376.319 152.3C376.166 151.993 376.089 151.763 376.089 151.61H375.629V150.69C374.556 148.85 373.789 146.78 373.329 144.48C373.022 142.027 372.946 139.727 373.099 137.58C373.252 137.12 373.329 136.583 373.329 135.97C373.329 135.357 373.406 134.82 373.559 134.36C373.712 133.9 373.866 133.44 374.019 132.98C374.326 132.52 374.632 132.06 374.939 131.6C375.092 131.447 375.169 131.217 375.169 130.91C375.322 130.45 375.476 130.143 375.629 129.99C375.936 129.837 376.319 129.683 376.779 129.53V124.47H378.159V129.07C378.466 128.917 378.772 128.763 379.079 128.61C379.539 128.303 379.922 128.15 380.229 128.15C380.536 128.15 380.919 128.303 381.379 128.61V120.1H380.459V118.72H382.989C383.449 118.413 383.986 118.107 384.599 117.8C385.212 117.34 385.672 117.11 385.979 117.11V115.5H384.139V114.12H390.579V109.52H395.179V107.45H396.559V109.52H399.779V104.92H407.599L408.519 104.23C409.592 103.157 410.819 102.39 412.199 101.93C413.579 101.47 414.959 101.087 416.339 100.78C417.719 100.32 419.022 100.013 420.249 99.86C421.629 99.7067 423.009 99.63 424.389 99.63C426.996 99.3233 429.602 99.0933 432.209 98.94C434.816 98.6333 437.422 98.7867 440.029 99.4C441.102 99.5533 442.176 99.86 443.249 100.32H446.469V97.1H438.189V95.72H446.469V92.5H442.789V91.12H446.469V87.9H440.949V86.52H441.869V83.3H438.649V85.37H437.269V83.3H434.049V86.29H432.669V83.3H429.449V86.52H430.369V87.9H424.849V89.05H423.469V87.9H422.089V86.75C421.476 87.3633 420.862 87.9 420.249 88.36V89.97H418.869V89.28C418.562 89.4333 418.179 89.5867 417.719 89.74C417.259 89.74 416.876 89.74 416.569 89.74C416.262 89.8933 415.956 89.97 415.649 89.97V90.43H414.269V90.2C412.582 90.5067 410.896 90.66 409.209 90.66C407.676 90.66 406.066 90.66 404.379 90.66C401.772 90.66 398.936 90.7367 395.869 90.89C392.956 90.89 390.349 90.2767 388.049 89.05C387.896 88.8967 387.589 88.7433 387.129 88.59H386.669V88.36C386.362 88.2067 386.056 88.0533 385.749 87.9H385.289V87.44C384.982 87.2867 384.752 86.98 384.599 86.52C384.446 86.06 384.292 85.7533 384.139 85.6C383.986 85.2933 383.756 84.9867 383.449 84.68C383.142 84.22 382.912 83.76 382.759 83.3C382.759 82.9933 382.759 82.5333 382.759 81.92C382.912 81.3067 382.989 80.77 382.989 80.31C383.142 79.5433 383.296 78.7767 383.449 78.01V77.32H383.679C384.139 75.94 384.829 74.56 385.749 73.18V72.72H385.979C386.286 72.4133 386.516 72.1833 386.669 72.03V71.57H386.899C387.819 70.4967 388.816 69.4233 389.889 68.35V68.12H390.119C390.426 67.8133 390.809 67.43 391.269 66.97H391.499C391.959 66.51 392.496 66.05 393.109 65.59C393.722 65.13 394.336 64.67 394.949 64.21V63.52H395.869C397.402 62.4467 399.242 61.3733 401.389 60.3V58.92H404.379C406.066 58.1533 407.829 57.4633 409.669 56.85C411.509 56.0833 413.196 55.47 414.729 55.01V54.32H416.569C416.876 54.1667 417.259 54.0133 417.719 53.86C420.019 53.4 422.396 53.0167 424.849 52.71C427.302 52.25 429.679 52.3267 431.979 52.94C432.132 52.94 432.362 53.0167 432.669 53.17V52.71H434.049V53.4C434.816 53.7067 435.582 54.0133 436.349 54.32H437.269V52.25H438.649V54.32H441.869V52.25H443.249V54.32H446.469V52.25H447.849V54.32H451.069V52.25H452.449V54.32H455.439C455.592 54.1667 455.669 54.09 455.669 54.09V53.17H457.049V53.86C457.356 53.7067 457.662 53.63 457.969 53.63C458.429 53.63 458.736 53.63 458.889 53.63C459.349 53.63 459.809 53.63 460.269 53.63H461.649C462.569 53.7833 463.566 54.0133 464.639 54.32H467.629V55.47L468.319 55.7C468.472 55.8533 468.626 56.0067 468.779 56.16C469.086 56.16 469.316 56.2367 469.469 56.39V55.93H470.849V57.31C471.156 57.6167 471.539 58.1533 471.999 58.92H474.069V57.77H475.449V58.92H478.669V59.61H480.049V63.52H483.269V63.29H484.649V63.52H485.569V64.67C486.182 64.9767 486.796 65.4367 487.409 66.05C488.022 66.51 488.559 66.97 489.019 67.43C491.472 69.5767 493.542 72.26 495.229 75.48C496.916 78.7 498.219 81.92 499.139 85.14C499.599 86.98 499.982 88.9733 500.289 91.12C500.596 93.1133 500.596 95.1067 500.289 97.1C500.136 97.56 500.059 98.0967 500.059 98.71C500.059 99.3233 499.982 99.86 499.829 100.32C499.676 100.627 499.446 101.01 499.139 101.47C498.986 101.777 498.756 102.16 498.449 102.62V104H497.529C497.376 104.307 497.222 104.537 497.069 104.69C497.069 104.69 496.916 104.767 496.609 104.92H499.829V106.3H493.849V107.68H492.469V106.76C492.316 106.607 492.086 106.453 491.779 106.3H489.249V109.06H487.869V106.3H480.049V109.52H483.269V108.37H484.649V109.52H500.749V110.9H484.649V114.12H495.229V112.05H496.609V114.12H500.749V115.5H496.609V118.72H499.829V118.49H501.209V161.73H499.829V161.5H496.609V164.72H499.369V166.1H496.839C496.839 166.407 496.762 166.713 496.609 167.02V169.09H495.919C495.919 169.703 495.842 170.01 495.689 170.01V170.7H494.769C494.156 170.853 493.849 170.93 493.849 170.93C492.009 171.85 490.246 172.387 488.559 172.54C485.339 172.847 482.042 173 478.669 173C475.449 173 472.229 173 469.009 173C467.016 173 464.869 172.923 462.569 172.77C460.422 172.617 458.429 172.08 456.589 171.16C456.282 171.007 455.976 170.853 455.669 170.7H454.289V169.78L453.829 169.55C452.602 168.477 451.529 167.327 450.609 166.1V166.79H449.229V166.1H446.009V166.33H444.629V166.1H441.409V167.71H440.029V166.1H436.809V170.01H435.429V170.7H432.209V171.85H430.829V170.7H427.609V173.23H426.229V170.7H423.009V174.15H421.629V170.7H418.409V175.3H416.109V173.92H417.029V170.7H413.809V174.61H412.429V170.7H409.209V174.15H407.829V170.7H405.069V169.32H407.829V156.21H404.609V159.43H406.449V160.81H404.609V173.23H403.229V160.81H400.009V164.03H402.309V165.41H400.009V171.85H398.629V165.41H395.409V170.47H394.029V165.41H390.809V167.25ZM439.109 55.7C440.182 56.3133 441.102 56.9267 441.869 57.54V55.7H439.109ZM443.249 58.92H446.469V55.7H443.249V58.92ZM447.849 58.92H451.069V55.7H447.849V58.92ZM452.679 58C452.832 57.6933 453.062 57.31 453.369 56.85C453.676 56.39 453.982 56.0067 454.289 55.7H452.449V58.92C452.449 58.6133 452.526 58.3067 452.679 58ZM446.469 63.52V60.3H444.399C445.319 61.3733 446.009 62.4467 446.469 63.52ZM447.849 63.52H451.069V60.3H447.849V63.52ZM472.919 63.52H474.069V60.3H473.149C473.302 60.4533 473.379 60.6833 473.379 60.99C473.532 61.2967 473.456 61.7567 473.149 62.37C472.996 62.83 472.919 63.2133 472.919 63.52ZM452.449 61.22C452.449 61.0667 452.449 60.8367 452.449 60.53V61.22ZM447.849 68.12H451.069V64.9H447.849V68.12ZM452.449 68.12C452.449 66.1267 452.449 65.0533 452.449 64.9C452.449 64.7467 452.449 64.7467 452.449 64.9V68.12ZM472.459 66.05C472.152 66.6633 471.769 67.3533 471.309 68.12H474.069V64.9H472.689C472.689 65.36 472.612 65.7433 472.459 66.05ZM478.439 68.12C478.439 67.8133 478.516 67.5833 478.669 67.43V64.9H475.449V68.12H478.439ZM447.849 72.72H451.069V69.5H447.849V72.72ZM453.369 69.96C453.369 69.8067 453.292 69.6533 453.139 69.5H452.449V72.72H453.829C453.676 72.26 453.522 71.8 453.369 71.34C453.369 70.88 453.369 70.42 453.369 69.96ZM470.849 72.72H474.069V69.5H470.849V72.72ZM475.449 72.72H478.669V69.5H475.449V72.72ZM467.859 72.26L467.399 72.72H469.469V70.42C469.162 70.7267 468.856 71.0333 468.549 71.34C468.396 71.6467 468.166 71.9533 467.859 72.26ZM447.849 77.32H451.069V74.1H447.849V77.32ZM452.449 77.32H455.669V75.02C455.209 74.7133 454.902 74.4067 454.749 74.1H452.449V77.32ZM466.249 77.32H469.469V74.1H466.249V77.32ZM470.849 77.32H474.069V74.1H470.849V77.32ZM475.449 77.32H478.669V74.1H475.449V77.32ZM446.009 76.4C446.009 76.4 445.856 76.7067 445.549 77.32H446.469V75.02C446.316 75.48 446.162 75.94 446.009 76.4ZM462.109 77.09H461.649V77.32H464.869V75.02C464.562 75.3267 464.179 75.6333 463.719 75.94C463.412 76.0933 463.106 76.3233 462.799 76.63C462.646 76.7833 462.416 76.9367 462.109 77.09ZM480.509 77.32C480.356 76.5533 480.202 75.94 480.049 75.48V77.32H480.509ZM457.049 77.32H460.269V77.09C459.656 77.09 459.042 77.0133 458.429 76.86C457.969 76.7067 457.509 76.5533 457.049 76.4V77.32ZM443.249 81.92H446.469V78.7H444.859C444.706 78.8533 444.476 79.0067 444.169 79.16C443.862 79.3133 443.556 79.4667 443.249 79.62V81.92ZM447.849 81.92H451.069V78.7H447.849V81.92ZM452.449 81.92H455.669V78.7H452.449V81.92ZM457.049 81.92H460.269V78.7H457.049V81.92ZM461.649 81.92H464.869V78.7H461.649V81.92ZM466.249 81.92H469.469V78.7H466.249V81.92ZM470.849 81.92H474.069V78.7H470.849V81.92ZM475.449 81.92H478.669V78.7H475.449V81.92ZM480.049 81.92H482.579C481.966 80.6933 481.429 79.62 480.969 78.7H480.049V81.92ZM429.449 81.92H432.669V80.31C431.289 80.31 430.216 80.54 429.449 81V81.92ZM434.049 81.92H437.269V80.77C436.809 80.77 436.272 80.77 435.659 80.77C435.199 80.6167 434.662 80.54 434.049 80.54V81.92ZM440.719 81.23C440.412 81.23 439.722 81.1533 438.649 81V81.92H441.869V80.54C441.409 80.8467 441.026 81.0767 440.719 81.23ZM426.919 81.92H428.069V81.46C427.456 81.6133 427.072 81.7667 426.919 81.92ZM424.849 86.52H428.069V83.3H425.309C425.156 83.3 425.002 83.3767 424.849 83.53C424.849 83.53 424.849 83.6067 424.849 83.76V86.52ZM443.249 86.52H446.469V83.3H443.249V86.52ZM447.849 86.52H451.069V83.3H447.849V86.52ZM452.449 86.52H455.669V83.3H452.449V86.52ZM457.509 85.37H460.269V83.3H457.049V89.97H460.269V86.75H457.509V85.37ZM463.949 85.37V86.52H464.869V83.3H461.649V85.37H463.949ZM466.249 86.52H469.469V83.3H466.249V86.52ZM470.849 86.52H474.069V83.3H470.849V86.52ZM475.449 86.52H478.669V83.3H475.449V86.52ZM480.049 86.52H483.269V83.53V83.3H480.049V86.52ZM423.469 86.52V85.37C423.009 85.83 422.626 86.2133 422.319 86.52H423.469ZM484.649 86.52C484.649 86.3667 484.649 86.29 484.649 86.29V86.52ZM463.489 87.9V86.75H461.649V89.97H464.869V87.9H463.489ZM466.249 91.12H469.469V87.9H466.249V91.12ZM470.849 91.12H474.069V87.9H470.849V91.12ZM475.449 91.12H478.669V87.9H475.449V91.12ZM480.049 91.12H483.269V87.9H480.049V91.12ZM486.029 89.28C485.876 88.82 485.646 88.36 485.339 87.9H484.649V91.12H486.489C486.336 90.3533 486.182 89.74 486.029 89.28ZM447.849 91.12H451.069V87.9H447.849V91.12ZM453.829 92.5H452.449V99.17H455.669V95.95H452.909V94.57H455.669V91.35H455.209V89.97H455.669V87.9H452.449V91.12H453.829V92.5ZM457.049 94.57H460.269V91.35H457.049V94.57ZM464.869 91.35H461.649V94.57H464.869V91.35ZM467.169 95.95H466.249V99.17H469.469V97.1H469.009V95.72H469.469V92.5H466.249V94.57H467.169V95.95ZM470.849 95.72H474.069V92.5H470.849V95.72ZM475.449 95.72H478.669V92.5H475.449V95.72ZM480.049 95.72H483.269V92.5H480.049V95.72ZM486.949 92.96C486.796 92.8067 486.719 92.6533 486.719 92.5H484.649V95.72H487.409C487.256 94.6467 487.102 93.7267 486.949 92.96ZM447.849 95.72H451.069V92.5H447.849V95.72ZM457.049 99.17H460.269V95.95H457.049V99.17ZM461.649 99.17H464.869V95.95H461.649V99.17ZM473.609 100.55H470.849V103.77H474.069V97.1H470.849V99.17H473.609V100.55ZM475.449 100.32H478.669V97.1H475.449V100.32ZM480.049 100.32H483.269V97.1H480.049V100.32ZM484.649 100.32H487.869V99.86C487.869 99.4 487.792 98.94 487.639 98.48C487.639 98.02 487.562 97.56 487.409 97.1H484.649V100.32ZM447.849 101.93H446.469V101.7H445.549L445.779 101.93H446.009V102.16C446.929 102.773 447.466 103.31 447.619 103.77H451.069V100.55H449.229V99.17H451.069V97.1H447.849V101.93ZM452.449 103.77H455.669V100.55H452.449V103.77ZM457.049 103.77H460.269V100.55H457.049V103.77ZM461.649 103.77H464.869V100.55H461.649V103.77ZM466.249 103.77H469.469V100.55H466.249V103.77ZM475.449 104.92H478.669V101.7H475.449V104.92ZM480.049 104.92H483.269V101.7H480.049V104.92ZM484.649 104.92H487.869V101.7H484.649V104.92ZM489.249 104.92H489.939C489.632 104.767 489.402 104.613 489.249 104.46V104.92ZM448.539 105.15C448.539 105.457 448.616 105.763 448.769 106.07C448.922 106.377 449.076 106.683 449.229 106.99V105.15H448.539ZM457.049 106.99H455.669V105.15H450.609V108.37H453.829V106.53H455.209V108.37H460.269V105.15H457.049V106.99ZM461.649 108.37H464.869V105.15H461.649V108.37ZM466.249 108.37H469.469V105.15H466.249V108.37ZM474.069 105.15H470.849V108.37H474.069V105.15ZM475.449 109.52H478.669V106.3H475.449V109.52ZM405.759 106.99V107.22C405.912 106.913 406.142 106.607 406.449 106.3H401.159V109.52H404.379V106.99H405.759ZM447.389 112.74C447.389 112.893 447.312 112.97 447.159 112.97H449.229V109.75H448.999C448.692 110.21 448.539 110.44 448.539 110.44C448.386 110.747 448.232 111.13 448.079 111.59C447.926 112.05 447.696 112.433 447.389 112.74ZM450.609 112.97H453.829V109.75H450.609V112.97ZM470.849 111.13H469.469V109.75H455.209V112.97H474.069V109.75H470.849V111.13ZM475.449 119.41H474.069V118.95H459.809V122.17H463.029V119.87H464.409V122.17H475.909V123.32H478.669V120.1H477.749V118.72H478.669V115.5H476.829V114.12H478.669V110.9H475.449V112.97H475.909V114.35H475.449V117.57H476.829V118.95H475.449V119.41ZM480.049 114.12H483.269V110.9H480.049V114.12ZM391.959 114.12H395.179V110.9H391.959V114.12ZM396.559 114.12H399.779V110.9H396.559V114.12ZM401.159 114.12H403.689C403.689 112.893 403.842 111.82 404.149 110.9H401.159V114.12ZM446.009 117.57H449.229V114.35H446.009V117.57ZM450.609 117.57H453.829V114.35H450.609V117.57ZM459.809 114.35V117.57H474.069V114.35H459.809ZM441.409 118.72H444.629V114.58C444.169 114.887 443.632 115.193 443.019 115.5C442.406 115.807 441.869 116.19 441.409 116.65V118.72ZM480.049 118.72H483.269V115.5H480.049V118.72ZM492.009 117.57V118.72H495.229V115.5H484.649V118.72H487.869V117.57H489.249V118.72H490.629V117.57H492.009ZM388.739 117.57C389.352 117.723 389.966 117.953 390.579 118.26V115.5H387.359V117.34C387.666 117.34 387.896 117.417 388.049 117.57C388.356 117.57 388.586 117.57 388.739 117.57ZM394.489 117.11H395.179V115.5H391.959V118.72C392.419 118.873 392.879 119.027 393.339 119.18C393.952 119.333 394.566 119.563 395.179 119.87V118.49H394.489V117.11ZM396.559 117.11H399.779V115.5H396.559V117.11ZM403.229 115.73H403.689V115.5H401.159V117.11H403.229V115.73ZM439.109 118.49C438.956 118.49 438.879 118.567 438.879 118.72H440.029V117.57L439.109 118.49ZM397.019 120.56C397.632 120.713 398.169 120.867 398.629 121.02V120.33H400.009V121.71H400.239H403.229V118.49H401.159V118.95H399.779V118.49H396.559V120.33L397.019 120.56ZM446.009 141.72H449.229V118.95H446.009V141.72ZM450.609 122.17H453.829V118.95H450.609V122.17ZM455.209 122.17H458.429V118.95H455.209V122.17ZM404.609 121.71C404.609 120.79 404.609 120.253 404.609 120.1C404.609 119.947 404.609 119.87 404.609 119.87V121.71ZM480.049 123.32H483.269V120.1H480.049V123.32ZM484.649 123.32H487.869V120.1H484.649V123.32ZM489.249 123.32H490.629V120.1H489.249V123.32ZM492.009 123.32H495.229V120.1H492.009V123.32ZM496.609 123.32H499.829V120.1H496.609V123.32ZM436.809 141.72H440.029V120.1H437.729C437.422 120.407 437.116 120.79 436.809 121.25V141.72ZM441.409 141.72H444.629V120.1H441.409V141.72ZM432.669 125.85C432.516 126.003 432.362 126.157 432.209 126.31V141.72H435.429V123.09C434.509 124.317 433.589 125.237 432.669 125.85ZM404.609 123.55C405.682 124.01 406.756 124.47 407.829 124.93V124.01C407.369 123.703 406.986 123.397 406.679 123.09H404.609V123.55ZM450.609 126.77H453.829V123.55H450.609V126.77ZM455.209 126.77H458.429V123.55H455.209V126.77ZM459.809 126.77H463.029V123.55H459.809V126.77ZM464.409 126.77H467.629V123.55H464.409V126.77ZM489.249 124.93H487.869V124.7H484.649V127.92H486.029V126.77H487.409V127.92H490.629V124.7H489.249V124.93ZM492.009 127.92H493.849C494.309 126.54 494.769 125.467 495.229 124.7H492.009V127.92ZM497.069 126.77C497.069 127.23 497.069 127.613 497.069 127.92H499.829V124.7H496.609L497.069 126.77ZM409.209 125.62C409.669 125.927 410.052 126.157 410.359 126.31H411.509C410.589 125.85 409.822 125.39 409.209 124.93V125.62ZM428.529 146.32H430.829V127C429.909 127.613 428.836 128.15 427.609 128.61V155.52H430.829V147.7H428.529V146.32ZM383.219 129.3C384.139 129.607 385.059 130.067 385.979 130.68V129.99C384.906 128.917 384.216 128.15 383.909 127.69H382.759V129.07L383.219 129.3ZM414.499 129.07C414.652 129.377 414.729 129.99 414.729 130.91H417.029V128.84C416.109 128.533 415.189 128.15 414.269 127.69H413.809V128.61C414.116 128.763 414.346 128.917 414.499 129.07ZM450.609 131.37H453.829V128.15H450.609V131.37ZM455.209 131.37H458.429V128.15H455.209V131.37ZM459.809 131.37H463.029V128.15H459.809V131.37ZM464.409 131.37H467.629V128.15H464.409V131.37ZM470.849 131.37V132.52H472.229V128.15H469.009V131.37H470.849ZM473.609 132.52H476.829V129.3H473.609V132.52ZM478.209 132.52H481.429V129.3H478.209V132.52ZM482.809 132.52H486.029V129.3H482.809V132.52ZM487.409 132.52H490.629V129.3H487.409V132.52ZM493.159 130.68C493.312 130.067 493.389 129.607 493.389 129.3H492.009V132.52H492.239C492.699 131.753 493.006 131.14 493.159 130.68ZM496.609 132.52H499.829V129.3H496.839C496.839 129.607 496.762 129.913 496.609 130.22C496.609 130.527 496.609 130.833 496.609 131.14V132.52ZM420.709 132.29H418.409V160.12H421.629V156.9H419.329V155.52H421.629V129.99C420.556 129.837 419.482 129.607 418.409 129.3V130.91H420.709V132.29ZM388.279 132.29C389.199 132.903 389.966 133.44 390.579 133.9V133.44C389.966 133.133 389.352 132.75 388.739 132.29H388.279ZM415.189 133.9C415.036 134.207 414.576 134.743 413.809 135.51V139.88C413.962 140.033 414.116 140.417 414.269 141.03H417.029V132.29H414.959V132.75C414.959 132.903 414.959 133.133 414.959 133.44C415.112 133.593 415.189 133.747 415.189 133.9ZM452.909 143.1H450.609V146.32H453.829V141.95H453.369V140.57H453.829V137.35H451.069V135.97H453.829V132.75H450.609V141.72H452.909V143.1ZM455.209 135.97H458.429V132.75H455.209V135.97ZM459.809 135.97H463.029V132.75H459.809V135.97ZM464.409 135.97H467.629V132.75H464.409V135.97ZM470.389 133.9V132.75H469.009V136.2L469.239 135.97C469.546 135.97 469.929 135.893 470.389 135.74C470.849 135.587 471.232 135.51 471.539 135.51C471.846 135.51 472.076 135.51 472.229 135.51V133.9H470.389ZM473.609 135.74C474.222 135.74 474.759 135.893 475.219 136.2C475.832 136.353 476.369 136.583 476.829 136.89V133.9H473.609V135.74ZM478.209 137.12H481.429V133.9H478.209V137.12ZM482.809 137.12H486.029V133.9H482.809V137.12ZM489.939 135.74C490.092 135.587 490.322 135.28 490.629 134.82V133.9H487.409V137.12H487.639C488.712 136.66 489.479 136.2 489.939 135.74ZM496.609 137.12H499.829V133.9H496.609V137.12ZM393.569 135.28C394.182 135.433 394.719 135.51 395.179 135.51V135.28C394.106 134.973 393.186 134.667 392.419 134.36L391.959 134.13V134.59C392.572 134.897 393.109 135.127 393.569 135.28ZM396.559 135.74C396.866 135.74 397.172 135.817 397.479 135.97C397.939 135.97 398.322 135.97 398.629 135.97C398.169 135.817 397.479 135.663 396.559 135.51V135.74ZM455.209 140.57H458.429V137.35H455.209V140.57ZM459.809 140.57H463.029V137.35H459.809V140.57ZM464.639 139.42C464.946 139.113 465.176 138.807 465.329 138.5C465.636 138.04 465.942 137.657 466.249 137.35H464.409V139.65C464.562 139.497 464.639 139.42 464.639 139.42ZM411.049 139.19C411.202 139.19 411.356 139.267 411.509 139.42C411.816 139.42 412.122 139.42 412.429 139.42V137.81H410.589C410.282 137.81 410.052 137.887 409.899 138.04C409.746 138.04 409.516 138.04 409.209 138.04V138.73C409.822 138.883 410.436 139.037 411.049 139.19ZM496.609 141.72H499.829V138.5H496.609V141.72ZM455.209 146.32H458.429V141.95H455.209V146.32ZM459.809 146.32H463.029V141.95H459.809V146.32ZM415.879 144.25C415.879 144.557 415.879 145.017 415.879 145.63H417.029V142.41H414.959C415.419 143.33 415.726 143.943 415.879 144.25ZM496.609 146.32H499.829V143.1H496.609V146.32ZM432.209 146.32H435.429V143.1H432.209V146.32ZM436.809 146.32H440.029V143.1H436.809V146.32ZM441.409 146.32H444.629V143.1H441.409V146.32ZM446.009 146.32H449.229V143.1H446.009V146.32ZM464.409 146.32H465.099C464.639 145.86 464.409 145.477 464.409 145.17V146.32ZM414.729 151.61H413.809V169.32H417.029V166.1H414.269V164.72H417.029V147.01H415.649C415.649 147.317 415.649 147.7 415.649 148.16C415.649 148.467 415.572 148.773 415.419 149.08C415.419 149.233 415.266 149.387 414.959 149.54C414.806 149.54 414.652 149.54 414.499 149.54C414.192 149.693 413.962 149.847 413.809 150V150.23H414.729V151.61ZM433.589 150.92H435.429V147.7H432.209V155.52H435.429V152.3H433.589V150.92ZM436.809 150.92H440.029V147.7H436.809V150.92ZM441.409 150.92H444.629V147.7H441.409V150.92ZM446.009 150.92H449.229V147.7H446.009V150.92ZM450.609 150.92H453.829V147.7H450.609V150.92ZM455.209 150.92H458.199H458.429V147.7H455.209V150.92ZM460.959 150.69C461.726 150.69 462.416 150.69 463.029 150.69V147.7H459.809V150.69C460.269 150.69 460.652 150.69 460.959 150.69ZM466.939 148.39C466.786 148.237 466.632 148.007 466.479 147.7H464.409V150.92C464.409 150.92 464.486 150.92 464.639 150.92H467.629V149.08L466.939 148.39ZM499.829 150.92V147.7H496.839C497.146 148.467 497.529 149.157 497.989 149.77C498.449 150.23 498.756 150.613 498.909 150.92H499.829ZM469.009 150.92H469.929C469.622 150.767 469.316 150.537 469.009 150.23V150.92ZM425.769 152.3H423.009V155.52H426.229V129.07H425.769C425.462 129.223 425.079 129.377 424.619 129.53C424.159 129.683 423.699 129.837 423.239 129.99H423.009V150.92H425.769V152.3ZM410.589 156.21H409.209V169.32H412.429V151.61H411.049C410.589 151.763 409.976 151.917 409.209 152.07V154.83H410.589V156.21ZM436.809 155.52H440.029V152.3H436.809V155.52ZM441.409 155.52H444.629V152.3H441.409V155.52ZM446.009 155.52H449.229V152.3H446.009V155.52ZM451.299 153.91C451.606 153.757 451.912 153.527 452.219 153.22C452.679 152.913 453.139 152.607 453.599 152.3H450.609V154.37C450.762 154.37 450.839 154.37 450.839 154.37C450.992 154.217 451.146 154.063 451.299 153.91ZM470.389 152.3C471.002 152.453 471.616 152.683 472.229 152.99V152.3H470.389ZM499.369 152.3C499.522 152.607 499.599 152.913 499.599 153.22C499.752 153.527 499.829 153.91 499.829 154.37V152.3H499.369ZM405.759 152.76C405.299 152.913 404.916 152.99 404.609 152.99V154.83H407.829V152.53C407.522 152.53 407.139 152.607 406.679 152.76C406.372 152.76 406.066 152.76 405.759 152.76ZM473.609 153.45C474.682 153.91 475.756 154.447 476.829 155.06V154.6C476.369 154.293 475.832 154.063 475.219 153.91C474.606 153.603 474.069 153.297 473.609 152.99V153.45ZM400.009 154.83H403.229V153.45C402.309 153.603 401.236 153.757 400.009 153.91V154.83ZM395.409 154.83H398.629V154.14C398.016 154.293 397.402 154.447 396.789 154.6C396.329 154.6 395.869 154.677 395.409 154.83ZM478.209 155.52H478.669C478.516 155.367 478.362 155.29 478.209 155.29V155.52ZM390.809 159.43H394.029V156.21H390.809V159.43ZM395.409 159.43H398.629V156.21H395.409V159.43ZM400.009 159.43H403.229V156.21H400.009V159.43ZM423.009 160.12H426.229V156.9H423.009V160.12ZM427.609 160.12H430.829V156.9H427.609V160.12ZM432.209 160.12H435.429V156.9H432.209V160.12ZM436.809 160.12H440.029V156.9H436.809V160.12ZM441.409 160.12H444.629V156.9H441.409V160.12ZM449.229 157.59V156.9H446.009V160.12H448.539C448.539 159.813 448.539 159.583 448.539 159.43C448.539 159.123 448.616 158.817 448.769 158.51C448.922 158.203 449.076 157.897 449.229 157.59ZM480.279 156.9C480.739 157.053 481.122 157.283 481.429 157.59V157.13L480.969 156.9H480.279ZM499.599 157.59C499.446 158.05 499.216 158.587 498.909 159.2C498.602 159.66 498.372 159.967 498.219 160.12H499.829V157.13C499.676 157.283 499.599 157.437 499.599 157.59ZM482.809 158.28C483.422 158.74 483.652 158.97 483.499 158.97C483.192 158.663 482.962 158.433 482.809 158.28ZM390.809 164.03H394.029V160.81H390.809V164.03ZM395.409 164.03H398.629V160.81H395.409V164.03ZM418.409 164.72H421.629V161.5H418.409V164.72ZM423.009 164.72H426.229V161.5H423.009V164.72ZM427.609 164.72H430.829V161.5H427.609V164.72ZM432.209 164.72H435.429V161.5H432.209V164.72ZM436.809 164.72H440.029V161.5H436.809V164.72ZM441.409 164.72H444.629V161.5H441.409V164.72ZM449.229 161.96C449.076 161.807 448.999 161.653 448.999 161.5H446.009V164.72H449.229V162.42C449.229 162.267 449.229 162.113 449.229 161.96ZM493.849 163.57C494.462 164.03 494.922 164.337 495.229 164.49V161.73C494.462 162.19 493.849 162.42 493.389 162.42C493.082 162.573 492.622 162.65 492.009 162.65V162.88C492.622 163.033 493.236 163.263 493.849 163.57ZM418.409 169.32H421.629V166.1H418.409V169.32ZM423.009 169.32H426.229V166.1H423.009V169.32ZM427.609 169.32H430.829V166.1H427.609V169.32ZM435.429 169.32V166.1H432.209V169.32H435.429ZM478.669 60.3H475.449V63.52H478.669V60.3ZM458.429 114.35H455.209V117.57H458.429V114.35ZM475.909 123.55H469.009V126.77H472.229V124.47H473.609V127.92H476.829V126.77H478.209V127.92H483.269V124.7H480.049V127.23H478.669V124.7H475.909V123.55ZM521.005 39.83H519.625V37.07H516.405V37.53H515.025V37.07H513.185V35.69H515.025V32.47H511.805V31.09H515.025V27.87H511.345V26.49H515.025V23.27H511.345V21.89H515.025V19.59C514.565 18.9767 514.412 18.67 514.565 18.67H511.345V17.29H513.875C513.415 16.2167 513.109 15.1433 512.955 14.07H511.345V12.69H512.725C512.725 11.6167 512.802 10.5433 512.955 9.46999H511.805V8.09H513.415C513.569 7.63 513.722 7.16999 513.875 6.70999C514.029 6.55666 514.182 6.32666 514.335 6.02C514.642 5.71333 514.872 5.40666 515.025 5.1V4.87H513.645V3.48999H516.405L516.635 3.25999C516.789 3.10666 517.019 2.95333 517.325 2.8C517.785 2.64666 518.169 2.49332 518.475 2.33999C518.629 2.33999 519.012 2.18666 519.625 1.88V1.64999H520.085C520.699 1.34332 521.159 1.18999 521.465 1.18999C522.079 1.03666 522.692 0.959994 523.305 0.959994C523.919 0.806663 524.532 0.729997 525.145 0.729997C526.832 0.576657 528.519 0.499986 530.205 0.499986C532.045 0.499986 533.809 0.499986 535.495 0.499986C537.335 0.499986 539.175 0.499986 541.015 0.499986C542.855 0.499986 544.695 0.499986 546.535 0.499986C547.609 0.653327 548.682 0.806663 549.755 0.959994C550.829 0.959994 551.902 1.18999 552.975 1.64999C553.435 1.64999 553.819 1.72666 554.125 1.88C554.585 1.88 554.969 2.03333 555.275 2.33999C555.582 2.49332 555.965 2.87665 556.425 3.48999H559.645V4.87H557.575C558.189 5.32999 558.495 5.71333 558.495 6.02C558.649 6.32666 558.572 7.01666 558.265 8.09H561.485V9.46999H558.035C557.882 10.0833 557.729 10.6967 557.575 11.31C557.422 11.77 557.269 12.23 557.115 12.69H561.485V14.07H556.425C556.272 14.6833 556.119 15.22 555.965 15.68C555.965 16.14 555.889 16.6767 555.735 17.29H561.485V18.67H555.735C555.889 19.59 555.965 20.3567 555.965 20.97C556.119 21.2767 556.195 21.5833 556.195 21.89H556.425V19.59H557.805V21.89H561.485V23.27H557.805V25.34C557.959 25.4933 558.035 25.7233 558.035 26.03C558.189 26.1833 558.342 26.3367 558.495 26.49H561.485V27.87H559.185C559.339 28.1767 559.492 28.56 559.645 29.02C559.952 29.3267 560.105 29.71 560.105 30.17C560.105 30.3233 560.105 30.63 560.105 31.09H561.485V32.47H560.105L559.875 32.7C559.875 33.0067 559.875 33.4667 559.875 34.08C560.029 34.54 560.029 34.9233 559.875 35.23C559.875 35.3833 559.722 35.5367 559.415 35.69H560.105V37.07H558.265C557.959 37.3767 557.652 37.6833 557.345 37.99C557.192 38.2967 556.962 38.5267 556.655 38.68C556.349 38.8333 555.965 38.9867 555.505 39.14C555.045 39.2933 554.585 39.4467 554.125 39.6C551.825 40.3667 549.372 40.75 546.765 40.75C544.159 40.75 541.552 40.75 538.945 40.75C536.799 40.75 534.652 40.8267 532.505 40.98C530.359 40.98 528.212 40.8267 526.065 40.52C525.605 40.52 524.992 40.52 524.225 40.52C523.459 40.3667 522.845 40.2133 522.385 40.06C522.079 39.9067 521.619 39.37 521.005 38.45V39.83ZM516.405 26.49H519.165C518.859 25.57 518.245 24.4967 517.325 23.27H516.405V26.49ZM516.405 31.09H519.625V28.1V27.87H516.405V31.09ZM516.405 35.69H519.625C519.625 35.5367 519.625 35.3067 519.625 35V32.47H516.405V35.69ZM536.415 173.69H535.955V173C534.729 173 533.502 173 532.275 173C531.049 173 529.822 173 528.595 173C527.062 173 525.605 172.923 524.225 172.77C522.845 172.617 521.465 172.387 520.085 172.08C519.625 171.927 519.165 171.85 518.705 171.85C518.245 171.697 517.862 171.543 517.555 171.39C517.095 171.083 516.635 170.7 516.175 170.24C515.715 169.78 515.332 169.397 515.025 169.09H514.335V168.63C514.029 168.477 513.875 168.323 513.875 168.17C513.722 167.71 513.722 167.173 513.875 166.56C514.029 165.793 514.105 165.257 514.105 164.95C514.105 164.95 514.105 164.797 514.105 164.49H511.575V163.11H514.335C514.489 162.957 514.795 162.88 515.255 162.88C515.715 162.727 516.022 162.573 516.175 162.42C516.329 162.42 516.712 162.267 517.325 161.96V160.81C516.712 160.657 516.099 160.503 515.485 160.35C515.179 160.197 514.872 160.12 514.565 160.12C514.412 160.12 514.182 160.043 513.875 159.89H510.655V158.51H512.495C512.342 158.203 512.189 157.897 512.035 157.59C511.882 157.283 511.729 156.977 511.575 156.67C511.422 156.517 511.192 156.287 510.885 155.98C510.732 155.673 510.655 155.443 510.655 155.29H510.195V153.91H510.655C510.809 153.603 510.885 153.373 510.885 153.22C511.039 152.913 511.115 152.683 511.115 152.53C511.115 152.223 511.115 151.917 511.115 151.61C511.269 151.303 511.345 150.997 511.345 150.69H510.195V149.31H512.035C512.342 149.157 512.649 149.003 512.955 148.85C513.262 148.543 513.492 148.313 513.645 148.16C513.952 147.853 514.259 147.547 514.565 147.24C515.025 146.933 515.409 146.703 515.715 146.55C516.022 146.397 516.635 146.243 517.555 146.09H510.195V144.71H520.085C518.705 144.557 517.632 144.403 516.865 144.25C516.559 144.097 516.252 143.867 515.945 143.56C515.639 143.253 515.332 142.947 515.025 142.64C514.719 142.487 514.335 142.333 513.875 142.18C513.569 141.873 513.339 141.643 513.185 141.49H510.195V140.11H512.265C512.265 139.957 512.189 139.803 512.035 139.65C512.035 139.343 511.959 139.113 511.805 138.96C511.499 138.347 511.269 137.657 511.115 136.89H510.195V135.51H510.655C510.502 134.59 510.349 133.517 510.195 132.29V130.91C510.195 130.757 510.195 130.22 510.195 129.3C510.195 128.687 510.272 128.15 510.425 127.69H510.195V126.31H510.655C510.809 125.697 511.115 124.853 511.575 123.78C511.575 123.78 511.652 123.55 511.805 123.09H510.195V121.71H512.725C512.879 121.557 513.185 121.327 513.645 121.02V118.49H510.195V117.11H513.645V113.89H510.195V112.51H513.645V111.59C513.339 111.437 512.955 111.283 512.495 111.13C512.189 110.823 512.035 110.517 512.035 110.21C511.882 110.057 511.805 109.75 511.805 109.29H510.195V107.91H511.345C511.345 107.45 511.269 106.99 511.115 106.53C510.962 106.07 510.885 105.61 510.885 105.15V104.69H510.195V103.31H510.655C510.655 102.543 510.655 101.47 510.655 100.09H510.195V98.71H510.655C510.655 97.0233 510.655 95.95 510.655 95.49H510.195V94.11H510.425C510.425 93.65 510.425 93.19 510.425 92.73C510.425 92.1167 510.349 91.5033 510.195 90.89V90.2C510.042 88.0533 509.889 85.9067 509.735 83.76C509.735 81.46 509.965 79.2367 510.425 77.09H510.195V75.71H510.885V75.48C511.192 74.56 511.575 73.5633 512.035 72.49H510.195V71.11H512.955C513.262 70.65 513.569 70.19 513.875 69.73V67.89H510.655V66.51H513.875V63.29H511.575V61.91H513.875V57.77H514.335V57.31H518.475V55.01H519.855V57.31H523.075V54.09H524.455V57.31H527.675V54.09H529.055V57.31H530.205C530.819 57.1567 531.202 57.1567 531.355 57.31H532.275V54.09H533.655V57.31H536.875V54.09H538.255V61.91H541.475V54.09H542.855V61.91H546.075V54.09H547.455V61.91H550.675V54.09H552.055V66.51H555.275V55.47H556.655V66.51H558.955V67.89H556.655V71.11H559.875V60.07H561.255V75.71H562.175V77.09H561.255V80.31H562.635V81.69H561.255V84.91H562.635V86.29H561.255V89.51H562.635V90.89H561.255V94.11H562.635V95.49H561.255V98.71H562.635V100.09H561.255V103.31H559.875V100.09H556.655V103.31H562.635V104.69H556.655V105.61H555.275V104.69H551.825V105.38C552.745 105.533 553.665 105.84 554.585 106.3C555.505 106.607 556.502 107.143 557.575 107.91H562.635V109.29H559.415C559.569 109.443 559.875 109.827 560.335 110.44H561.025V111.13C561.485 111.897 561.792 112.357 561.945 112.51H562.635V113.89H562.405C562.712 114.81 562.865 115.807 562.865 116.88C562.865 117.953 562.942 118.95 563.095 119.87C563.095 122.017 563.019 124.163 562.865 126.31C562.865 128.457 562.865 130.603 562.865 132.75C562.865 133.517 562.712 134.437 562.405 135.51H562.635V136.89H562.175V137.35C562.022 137.503 561.945 137.733 561.945 138.04C561.945 138.193 561.945 138.347 561.945 138.5C561.792 138.807 561.409 139.037 560.795 139.19C560.335 139.343 559.952 139.497 559.645 139.65C559.645 139.65 559.415 139.803 558.955 140.11H562.635V141.49H555.505V144.71H558.725V142.64H560.105V144.71H562.635V146.09H560.105V149.31H562.635V150.69H560.105V152.3C560.412 152.76 560.719 153.297 561.025 153.91H562.635V155.29H561.485C561.792 156.21 561.945 157.283 561.945 158.51H562.635V159.89H562.175C562.022 161.27 561.869 162.497 561.715 163.57V164.49H561.485L561.255 165.18C561.102 165.487 560.949 165.87 560.795 166.33C560.795 166.79 560.719 167.173 560.565 167.48C560.412 167.633 560.259 167.787 560.105 167.94V168.4H559.645C559.339 168.553 559.109 168.707 558.955 168.86V169.09H558.725C558.419 169.397 558.035 169.78 557.575 170.24C557.269 170.547 556.962 170.777 556.655 170.93C556.042 171.237 555.199 171.543 554.125 171.85C553.205 172.003 552.362 172.157 551.595 172.31C550.215 172.617 548.759 172.847 547.225 173C545.845 173 544.465 173 543.085 173C541.092 173 538.869 173 536.415 173V173.69ZM515.255 61.91H518.475V58.69H515.255V61.91ZM522.155 59.61C522.462 59.4567 522.769 59.3033 523.075 59.15V58.69H519.855V61.68C520.622 60.76 521.389 60.07 522.155 59.61ZM535.265 60.3C535.572 60.76 535.802 61.2967 535.955 61.91H536.875V58.69H533.655V59.15C533.962 59.3033 534.269 59.5333 534.575 59.84C534.882 59.9933 535.112 60.1467 535.265 60.3ZM516.865 65.59C517.172 65.13 517.402 64.7467 517.555 64.44C517.862 64.1333 518.169 63.8267 518.475 63.52V63.29H515.255V66.51H516.175C516.482 66.05 516.712 65.7433 516.865 65.59ZM536.645 63.29C536.645 63.5967 536.722 63.9033 536.875 64.21V63.29H536.645ZM538.255 66.51H541.475V63.29H538.255V66.51ZM542.855 66.51H546.075V63.29H542.855V66.51ZM547.455 66.51H550.675V63.29H547.455V66.51ZM538.255 71.11H541.475V67.89H538.255V71.11ZM542.855 71.11H546.075V67.89H542.855V71.11ZM547.455 71.11H550.675V67.89H547.455V71.11ZM552.055 71.11H555.275V67.89H552.055V71.11ZM538.255 75.71H541.475V72.49H538.255V75.71ZM542.855 75.71H546.075V72.49H542.855V75.71ZM547.455 75.71H550.675V72.49H547.455V75.71ZM552.055 75.71H555.275V72.49H552.055V75.71ZM556.655 75.71H559.875V72.49H556.655V75.71ZM533.885 75.02L533.655 75.25V75.71H536.875V72.72C536.569 73.4867 536.339 73.9467 536.185 74.1C536.032 74.4067 535.649 74.6367 535.035 74.79C534.575 74.79 534.192 74.8667 533.885 75.02ZM532.275 75.71V75.48C532.122 75.6333 531.969 75.71 531.815 75.71H532.275ZM524.455 80.31H527.675V77.09H524.685C524.685 77.09 524.609 77.09 524.455 77.09V80.31ZM529.055 80.31H532.275V77.09H529.055V80.31ZM533.655 80.31H536.875V77.09H533.655V80.31ZM538.255 80.31H541.475V77.09H538.255V80.31ZM542.855 80.31H546.075V77.09H542.855V80.31ZM547.455 80.31H550.675V77.09H547.455V80.31ZM552.055 80.31H555.275V77.09H552.055V80.31ZM556.655 80.31H559.875V77.09H556.655V80.31ZM521.695 78.01C521.389 78.3167 521.082 79.0833 520.775 80.31H523.075V77.55C522.462 77.7033 522.002 77.8567 521.695 78.01ZM521.005 84.91H523.075V81.69H520.545C520.699 82.15 520.775 82.6867 520.775 83.3C520.775 83.9133 520.852 84.45 521.005 84.91ZM524.455 84.91H527.675V81.69H524.455V84.91ZM529.055 84.91H532.275V81.69H529.055V84.91ZM533.655 84.91H536.875V81.69H533.655V84.91ZM538.255 84.91H541.475V81.69H538.255V84.91ZM542.855 84.91H546.075V81.69H542.855V84.91ZM547.455 84.91H550.675V81.69H547.455V84.91ZM552.055 84.91H555.275V81.69H552.055V84.91ZM556.655 84.91H559.875V81.69H556.655V84.91ZM521.925 86.29C522.539 87.0567 522.922 87.5167 523.075 87.67V86.29H521.925ZM524.455 89.51H527.675V86.29H524.455V89.51ZM529.055 89.51H532.275V86.29H529.055V89.51ZM533.655 89.51H536.875V86.29H533.655V89.51ZM538.255 89.51H541.475V86.29H538.255V89.51ZM542.855 89.51H546.075V86.29H542.855V89.51ZM547.455 89.51H550.675V86.29H547.455V89.51ZM552.055 89.51H555.275V86.29H552.055V89.51ZM556.655 89.51H559.875V86.29H556.655V89.51ZM527.675 94.11V90.89H525.375C526.295 92.1167 527.062 93.19 527.675 94.11ZM529.055 94.11H532.275V90.89H529.055V94.11ZM533.655 94.11H536.875V90.89H533.655V94.11ZM538.255 94.11H541.475V90.89H538.255V94.11ZM542.855 94.11H546.075V90.89H542.855V94.11ZM547.455 94.11H550.675V90.89H547.455V94.11ZM552.055 94.11H555.275V90.89H552.055V94.11ZM556.655 94.11H559.875V90.89H556.655V94.11ZM529.285 97.56C529.439 98.02 529.592 98.4033 529.745 98.71H532.275V95.49H529.055V96.87L529.285 97.56ZM533.655 98.71H536.875V95.49H533.655V98.71ZM542.855 96.41H541.475V95.49H538.255V98.71H545.845V97.1H547.225V98.71H550.675V95.49H547.455V96.41H546.075V95.49H542.855V96.41ZM552.055 98.71H555.275V95.49H552.055V98.71ZM556.655 98.71H559.875V95.49H556.655V98.71ZM530.895 103.31H532.275V100.09H530.205C530.359 100.55 530.435 101.087 530.435 101.7C530.589 102.16 530.742 102.697 530.895 103.31ZM533.655 103.31H536.875V100.09H533.655V103.31ZM538.255 103.31H541.245V100.09H538.255V103.31ZM542.625 103.31H545.845V100.09H542.625V103.31ZM552.055 102.85H550.675V100.09H547.225V103.31H555.275V100.09H552.055V102.85ZM531.815 107.45C531.969 107.603 532.045 107.757 532.045 107.91H532.275V104.69H531.125C531.432 105.763 531.662 106.683 531.815 107.45ZM536.415 105.15L536.875 104.92V104.69H533.655V107.91H534.115C534.269 107.603 534.345 107.373 534.345 107.22C534.499 106.913 534.652 106.683 534.805 106.53C534.805 106.377 534.805 106.223 534.805 106.07C534.959 105.763 535.112 105.533 535.265 105.38C535.419 105.227 535.572 105.15 535.725 105.15C536.032 105.15 536.262 105.15 536.415 105.15ZM548.375 104.69C549.142 104.843 549.832 104.997 550.445 105.15V104.69H548.375ZM534.345 110.9C534.345 110.747 534.192 110.517 533.885 110.21C533.732 109.75 533.655 109.443 533.655 109.29V111.59C533.809 111.743 533.885 111.897 533.885 112.05C534.039 112.203 534.115 112.357 534.115 112.51H535.265C534.959 112.05 534.652 111.513 534.345 110.9ZM515.025 117.11H518.245V113.89H515.025V117.11ZM519.625 117.11H522.845V113.89H519.625V117.11ZM524.225 117.11H527.445V113.89H527.215H524.225V117.11ZM535.955 116.42C535.955 116.727 536.032 116.957 536.185 117.11H536.645V114.81C536.492 114.503 536.262 114.197 535.955 113.89H534.805C535.265 114.81 535.649 115.653 535.955 116.42ZM530.435 115.04C530.282 114.887 529.975 114.81 529.515 114.81C529.209 114.657 528.979 114.58 528.825 114.58V117.11H531.815C531.662 116.803 531.432 116.497 531.125 116.19C530.972 115.73 530.742 115.347 530.435 115.04ZM538.025 117.11C537.872 116.65 537.795 116.343 537.795 116.19C537.795 116.037 537.872 116.113 538.025 116.42V117.11ZM516.175 119.18C516.635 119.027 517.325 119.027 518.245 119.18V118.49H515.025V120.1L515.255 119.87C515.409 119.717 515.562 119.64 515.715 119.64C515.869 119.487 516.022 119.333 516.175 119.18ZM519.625 119.18C520.239 119.487 520.852 119.717 521.465 119.87C522.232 120.023 522.692 120.177 522.845 120.33V118.49H519.625V119.18ZM528.825 121.02H527.445V118.49H524.225V121.25C524.379 121.403 524.455 121.557 524.455 121.71H531.125V121.02H531.815C531.815 121.02 531.892 120.867 532.045 120.56V118.49H528.825V121.02ZM536.415 118.49C536.569 118.643 536.645 118.873 536.645 119.18V118.49H536.415ZM538.025 120.1H536.875C536.875 120.253 536.875 120.407 536.875 120.56H537.105V121.71H540.325V119.18H540.785C540.479 118.873 540.249 118.643 540.095 118.49H538.025V120.1ZM542.855 121.02C542.395 120.713 542.012 120.407 541.705 120.1V121.71H543.545L542.855 121.02ZM525.605 123.09C525.912 123.55 526.219 124.087 526.525 124.7V123.09H525.605ZM529.285 125.39C529.745 124.47 530.129 123.703 530.435 123.09H527.905V126.31H528.825C528.825 126.157 528.902 126.003 529.055 125.85C529.209 125.697 529.285 125.543 529.285 125.39ZM538.025 126.08L538.255 126.31H540.325V123.09H537.335C537.642 124.317 537.872 125.313 538.025 126.08ZM541.705 126.31H544.925V123.09H541.705V126.31ZM546.305 126.31H549.295C548.529 125.543 547.532 124.7 546.305 123.78V126.31ZM528.825 129.99C528.825 129.683 528.749 129.377 528.595 129.07C528.595 128.61 528.519 128.15 528.365 127.69H527.905V127.92C528.212 128.84 528.442 129.837 528.595 130.91H528.825V129.99ZM538.945 127.69C539.252 128.457 539.712 129.223 540.325 129.99V127.69H538.945ZM541.705 130.91H544.925V127.69H541.705V130.91ZM546.305 130.91H549.525V127.69H546.305V130.91ZM550.905 130.91H552.745C551.979 129.53 551.365 128.61 550.905 128.15V130.91ZM529.055 135.05C529.055 135.203 529.055 135.357 529.055 135.51H529.515C529.515 134.897 529.439 134.36 529.285 133.9C529.132 133.44 529.055 132.903 529.055 132.29H528.825C528.979 133.21 529.055 134.13 529.055 135.05ZM544.925 135.51V132.29H542.165C542.472 132.75 542.855 133.287 543.315 133.9C543.775 134.36 544.235 134.897 544.695 135.51H544.925ZM546.305 135.51H549.525V132.29H546.305V135.51ZM550.905 135.51H554.125V134.13C553.819 133.21 553.589 132.597 553.435 132.29H550.905V135.51ZM529.055 138.5C528.902 138.96 528.672 139.497 528.365 140.11H529.515C529.515 139.65 529.515 139.343 529.515 139.19C529.669 138.423 529.745 137.657 529.745 136.89H529.285C529.285 137.657 529.209 138.193 529.055 138.5ZM546.995 139.88L547.225 140.11H549.525V136.89H546.305V138.27C546.612 138.73 546.842 139.267 546.995 139.88ZM550.905 140.11H554.125V136.89H550.905V140.11ZM555.735 137.81C555.735 137.657 555.659 137.503 555.505 137.35V140.11H557.575C557.575 140.11 557.575 140.033 557.575 139.88C557.115 139.42 556.502 138.73 555.735 137.81ZM529.285 141.72C529.285 141.72 529.362 141.643 529.515 141.49H527.905V142.87C528.672 142.41 529.132 142.027 529.285 141.72ZM548.145 142.87C548.145 143.33 548.069 143.943 547.915 144.71H549.525V141.49H547.685C547.992 142.103 548.145 142.563 548.145 142.87ZM550.905 144.71H554.125V141.49H550.905V144.71ZM524.915 143.56C524.762 143.56 524.532 143.637 524.225 143.79C523.919 143.943 523.612 144.097 523.305 144.25V144.71H524.685C524.992 144.71 525.299 144.633 525.605 144.48C525.759 144.327 526.065 144.097 526.525 143.79V142.87C526.372 143.023 526.065 143.177 525.605 143.33C525.299 143.33 525.069 143.407 524.915 143.56ZM547.225 147.24C547.072 147.393 546.765 147.547 546.305 147.7V149.31H549.065H549.525V146.09H547.455C547.455 146.703 547.379 147.087 547.225 147.24ZM553.665 148.85C553.819 148.85 553.972 148.85 554.125 148.85V146.09H550.905V149.08C551.979 148.773 552.899 148.697 553.665 148.85ZM557.345 149.31H558.725V146.09H555.505V149.08C556.579 149.08 557.192 149.157 557.345 149.31ZM544.925 148.16C544.465 148.467 543.929 148.697 543.315 148.85C542.855 149.003 542.395 149.157 541.935 149.31H544.925V148.16ZM534.115 156.21C533.809 156.517 533.502 156.9 533.195 157.36C532.889 157.82 532.659 158.127 532.505 158.28V158.51H532.735C532.889 158.203 533.042 157.897 533.195 157.59C533.502 157.13 533.732 156.823 533.885 156.67C534.192 156.21 534.499 155.75 534.805 155.29L534.115 156.21ZM528.365 161.04C528.979 160.887 529.745 160.503 530.665 159.89H530.435C529.362 160.503 528.519 160.887 527.905 161.04V161.27L528.365 161.04ZM519.165 161.5C519.472 161.347 519.855 161.27 520.315 161.27C519.702 161.27 519.165 161.27 518.705 161.27V161.5C518.859 161.5 519.012 161.5 519.165 161.5ZM524.225 161.5C524.532 161.5 524.839 161.5 525.145 161.5C525.605 161.5 526.065 161.423 526.525 161.27C526.065 161.423 525.605 161.5 525.145 161.5C524.839 161.347 524.455 161.347 523.995 161.5C523.689 161.5 523.459 161.5 523.305 161.5H524.225Z" fill="url(#paint0_linear_87_55)"/>
</g>
<defs>
<filter id="filter0_i_87_55" x="372.869" y="0.5" width="190.226" height="178.8" filterUnits="userSpaceOnUse" color-interpolation-filters="sRGB">
<feFlood flood-opacity="0" result="BackgroundImageFix"/>
<feBlend mode="normal" in="SourceGraphic" in2="BackgroundImageFix" result="shape"/>
<feColorMatrix in="SourceAlpha" type="matrix" values="0 0 0 0 0 0 0 0 0 0 0 0 0 0 0 0 0 0 127 0" result="hardAlpha"/>
<feOffset dy="4"/>
<feGaussianBlur stdDeviation="13"/>
<feComposite in2="hardAlpha" operator="arithmetic" k2="-1" k3="1"/>
<feColorMatrix type="matrix" values="0 0 0 0 0 0 0 0 0 0 0 0 0 0 0 0 0 0 0.45 0"/>
<feBlend mode="normal" in2="shape" result="effect1_innerShadow_87_55"/>
</filter>
<linearGradient id="paint0_linear_87_55" x1="408.576" y1="173" x2="456.954" y2="64.5888" gradientUnits="userSpaceOnUse">
<stop offset="0.0716666" stop-color="#26A596"/>
<stop offset="0.505" stop-color="#5AC6C6"/>
<stop offset="1" stop-color="#0066FF"/>
</linearGradient>
</defs>
</svg>
