<svg width="17888" height="10045" viewBox="0 0 17888 10045" fill="none" xmlns="http://www.w3.org/2000/svg">
<path d="M1924.84 4679.01C1567.24 4679.01 1260.42 4605.43 1004.36 4458.28C749.776 4311.12 554.054 4106.57 417.196 3844.62C280.338 3581.21 211.909 3276.59 211.909 2930.76C211.909 2583.47 280.338 2278.85 417.196 2016.91C555.526 1753.49 751.983 1548.2 1006.57 1401.05C1262.63 1253.89 1567.98 1180.31 1922.63 1180.31C2236.08 1180.31 2509.06 1236.96 2741.57 1350.28C2975.56 1463.59 3158.03 1623.99 3289.01 1831.49C3421.45 2037.51 3491.35 2279.59 3498.71 2557.72H2489.93C2469.33 2384.07 2410.47 2247.95 2313.34 2149.35C2217.69 2050.75 2092.6 2001.45 1938.09 2001.45C1813 2001.45 1703.37 2036.77 1609.18 2107.41C1515 2176.57 1441.42 2279.59 1388.45 2416.44C1336.94 2551.83 1311.19 2719.59 1311.19 2919.73C1311.19 3119.86 1336.94 3289.1 1388.45 3427.43C1441.42 3564.28 1515 3668.03 1609.18 3738.67C1703.37 3807.83 1813 3842.41 1938.09 3842.41C2038.15 3842.41 2126.45 3821.08 2202.97 3778.4C2280.97 3735.72 2344.98 3673.18 2395.01 3590.77C2445.05 3506.89 2476.69 3405.35 2489.93 3286.15H3498.71C3488.41 3565.76 3418.51 3810.04 3289.01 4019.01C3160.98 4227.97 2980.71 4390.58 2748.2 4506.84C2517.16 4621.62 2242.7 4679.01 1924.84 4679.01ZM4887.88 4679.01C4531.76 4679.01 4225.67 4606.17 3969.61 4460.48C3715.02 4313.32 3518.57 4108.77 3380.24 3846.83C3243.38 3583.41 3174.95 3278.06 3174.95 2930.76C3174.95 2582 3243.38 2276.64 3380.24 2014.7C3518.57 1751.28 3715.02 1546.73 3969.61 1401.05C4225.67 1253.89 4531.76 1180.31 4887.88 1180.31C5244.01 1180.31 5549.36 1253.89 5803.95 1401.05C6060 1546.73 6256.46 1751.28 6393.32 2014.7C6531.65 2276.64 6600.81 2582 6600.81 2930.76C6600.81 3278.06 6531.65 3583.41 6393.32 3846.83C6256.46 4108.77 6060 4313.32 5803.95 4460.48C5549.36 4606.17 5244.01 4679.01 4887.88 4679.01ZM4894.5 3864.49C5024 3864.49 5133.64 3824.76 5223.4 3745.29C5313.17 3665.82 5381.6 3555.45 5428.69 3414.18C5477.25 3272.91 5501.54 3109.56 5501.54 2924.14C5501.54 2735.78 5477.25 2570.96 5428.69 2429.69C5381.6 2288.41 5313.17 2178.05 5223.4 2098.58C5133.64 2019.11 5024 1979.38 4894.5 1979.38C4760.59 1979.38 4647.28 2019.11 4554.57 2098.58C4463.33 2178.05 4393.43 2288.41 4344.86 2429.69C4297.77 2570.96 4274.23 2735.78 4274.23 2924.14C4274.23 3109.56 4297.77 3272.91 4344.86 3414.18C4393.43 3555.45 4463.33 3665.82 4554.57 3745.29C4647.28 3824.76 4760.59 3864.49 4894.5 3864.49ZM7646.19 4663.56C7396.02 4663.56 7168.66 4598.81 6964.11 4469.31C6759.55 4339.81 6596.21 4145.56 6474.07 3886.56C6351.92 3627.56 6290.85 3306.02 6290.85 2921.93C6290.85 2523.13 6354.13 2194.97 6480.69 1937.44C6607.24 1679.91 6772.8 1489.34 6977.35 1365.73C7183.37 1242.11 7404.85 1180.31 7641.77 1180.31C7819.84 1180.31 7972.15 1211.21 8098.7 1273.02C8225.26 1333.35 8329.74 1411.35 8412.15 1507C8494.56 1602.65 8557.1 1701.99 8599.78 1805H8621.85V94.2726H9701.26V4615H8632.89V4065.36H8599.78C8554.16 4169.84 8489.41 4267.7 8405.53 4358.94C8321.65 4450.18 8216.43 4523.76 8089.87 4579.68C7964.79 4635.6 7816.89 4663.56 7646.19 4663.56ZM8021.44 3822.55C8152.42 3822.55 8264.26 3785.76 8356.97 3712.18C8449.68 3637.13 8521.05 3531.91 8571.08 3396.52C8621.12 3261.14 8646.13 3102.2 8646.13 2919.73C8646.13 2734.31 8621.12 2574.64 8571.08 2440.72C8522.52 2306.81 8451.15 2203.8 8356.97 2131.69C8264.26 2059.58 8152.42 2023.53 8021.44 2023.53C7887.53 2023.53 7774.22 2060.32 7681.51 2133.9C7588.8 2207.48 7518.16 2311.22 7469.6 2445.14C7422.51 2579.05 7398.96 2737.25 7398.96 2919.73C7398.96 3102.2 7423.24 3261.14 7471.8 3396.52C7520.37 3531.91 7590.27 3637.13 7681.51 3712.18C7774.22 3785.76 7887.53 3822.55 8021.44 3822.55ZM11222.9 4679.01C10868.2 4679.01 10562.1 4609.11 10304.6 4469.31C10048.6 4328.04 9851.36 4127.17 9713.03 3866.7C9576.17 3604.75 9507.74 3293.51 9507.74 2932.97C9507.74 2582.73 9576.91 2276.64 9715.24 2014.7C9853.57 1751.28 10048.6 1546.73 10300.2 1401.05C10551.8 1253.89 10848.4 1180.31 11189.8 1180.31C11431.1 1180.31 11651.9 1217.83 11852 1292.88C12052.1 1367.93 12225 1479.04 12370.7 1626.2C12516.4 1773.36 12629.7 1955.1 12710.7 2171.42C12791.6 2386.28 12832.1 2632.77 12832.1 2910.9V3180.2H9885.21V2553.3H11827.7C11826.2 2438.52 11799 2336.24 11746 2246.47C11693.1 2156.71 11620.2 2086.81 11527.5 2036.77C11436.3 1985.27 11331 1959.51 11211.8 1959.51C11091.2 1959.51 10983 1986.74 10887.4 2041.19C10791.7 2094.16 10715.9 2167.01 10660 2259.72C10604.1 2350.96 10574.6 2454.7 10571.7 2570.96V3208.89C10571.7 3347.22 10598.9 3468.63 10653.4 3573.11C10707.8 3676.12 10785.1 3756.33 10885.2 3813.72C10985.2 3871.11 11104.4 3899.81 11242.7 3899.81C11338.4 3899.81 11425.2 3886.56 11503.2 3860.07C11581.2 3833.59 11648.2 3794.59 11704.1 3743.08C11760 3691.58 11802 3628.3 11829.9 3553.25L12821 3581.94C12779.8 3804.15 12689.3 3997.67 12549.5 4162.49C12411.2 4325.83 12229.5 4453.12 12004.3 4544.36C11779.1 4634.13 11518.7 4679.01 11222.9 4679.01Z" fill="#1A1A1A"/>
<path d="M3302.25 6188.72L2311.13 6215.21C2300.83 6144.57 2272.87 6082.03 2227.25 6027.58C2181.63 5971.66 2122.03 5928.25 2048.45 5897.34C1976.35 5864.97 1892.47 5848.78 1796.81 5848.78C1671.73 5848.78 1565.04 5873.8 1476.74 5923.83C1389.92 5973.87 1347.24 6041.56 1348.71 6126.91C1347.24 6193.13 1373.73 6250.53 1428.18 6299.09C1484.1 6347.65 1583.43 6386.65 1726.18 6416.08L2379.56 6539.69C2718.03 6604.44 2969.67 6711.87 3134.49 6861.97C3300.78 7012.07 3384.66 7210.74 3386.13 7457.97C3384.66 7690.48 3315.49 7892.82 3178.64 8065C3043.25 8237.17 2857.83 8371.09 2622.38 8466.74C2386.92 8560.92 2117.62 8608.01 1814.47 8608.01C1330.32 8608.01 948.44 8508.68 668.838 8310.02C390.707 8109.88 231.776 7842.05 192.043 7506.53L1258.21 7480.04C1281.76 7603.65 1342.83 7697.84 1441.42 7762.59C1540.02 7827.34 1665.84 7859.71 1818.89 7859.71C1957.22 7859.71 2069.79 7833.96 2156.62 7782.45C2243.44 7730.95 2287.59 7662.52 2289.06 7577.16C2287.59 7500.64 2253.74 7439.57 2187.52 7393.95C2121.3 7346.86 2017.55 7310.07 1876.28 7283.58L1284.7 7171.01C944.761 7109.2 691.648 6995.15 525.358 6828.86C359.068 6661.1 276.659 6447.72 278.131 6188.72C276.659 5962.09 336.994 5768.58 459.136 5608.18C581.278 5446.3 754.926 5322.69 980.08 5237.34C1205.23 5151.98 1470.86 5109.31 1776.95 5109.31C2236.08 5109.31 2598.09 5205.7 2862.98 5398.47C3127.87 5589.78 3274.29 5853.2 3302.25 6188.72ZM5359.16 7080.5V5153.45H6436.36V8544H5407.72V7912.69H5372.4C5297.35 8120.18 5169.32 8285 4988.32 8407.14C4808.78 8527.81 4591.72 8588.15 4337.14 8588.15C4106.1 8588.15 3903.02 8535.17 3727.9 8429.22C3552.78 8323.26 3416.66 8175.37 3319.53 7985.53C3222.41 7794.22 3173.11 7570.54 3171.64 7314.49V5153.45H4251.05V7102.58C4252.52 7286.53 4301.09 7431.48 4396.74 7537.43C4492.39 7643.39 4622.63 7696.36 4787.45 7696.36C4894.87 7696.36 4991.26 7672.82 5076.61 7625.73C5163.44 7577.16 5231.87 7507.26 5281.9 7416.03C5333.41 7323.32 5359.16 7211.47 5359.16 7080.5ZM6377.49 9815.45V5153.45H7445.87V5734H7478.98C7523.13 5630.99 7585.67 5531.65 7666.61 5436C7749.02 5340.35 7853.5 5262.35 7980.06 5202.02C8108.08 5140.21 8261.13 5109.31 8439.19 5109.31C8674.65 5109.31 8894.65 5171.11 9099.2 5294.73C9305.22 5418.34 9471.51 5608.91 9598.07 5866.44C9724.63 6123.97 9787.9 6452.13 9787.9 6850.93C9787.9 7235.02 9726.83 7556.56 9604.69 7815.56C9484.02 8074.56 9320.67 8268.81 9114.65 8398.31C8910.1 8527.81 8682.74 8592.56 8432.57 8592.56C8261.86 8592.56 8113.97 8564.6 7988.88 8508.68C7863.8 8452.76 7758.58 8379.18 7673.23 8287.94C7589.35 8196.7 7524.6 8098.84 7478.98 7994.36H7456.9V9815.45H6377.49ZM7434.83 6848.73C7434.83 7031.2 7459.11 7190.14 7507.67 7325.52C7557.71 7460.91 7629.08 7566.13 7721.79 7641.18C7815.97 7714.76 7928.55 7751.55 8059.52 7751.55C8191.96 7751.55 8304.54 7714.76 8397.25 7641.18C8489.96 7566.13 8559.86 7460.91 8606.95 7325.52C8655.52 7190.14 8679.8 7031.2 8679.8 6848.73C8679.8 6666.25 8655.52 6508.05 8606.95 6374.14C8559.86 6240.22 8489.96 6136.48 8397.25 6062.9C8306.01 5989.32 8193.44 5952.53 8059.52 5952.53C7927.08 5952.53 7814.5 5988.58 7721.79 6060.69C7629.08 6132.8 7557.71 6235.81 7507.67 6369.72C7459.11 6503.64 7434.83 6663.31 7434.83 6848.73ZM11192.5 8608.01C10837.9 8608.01 10531.8 8538.11 10274.3 8398.31C10018.2 8257.04 9821.01 8056.17 9682.68 7795.7C9545.82 7533.75 9477.39 7222.51 9477.39 6861.97C9477.39 6511.73 9546.56 6205.64 9684.89 5943.7C9823.22 5680.28 10018.2 5475.73 10269.8 5330.05C10521.5 5182.89 10818 5109.31 11159.4 5109.31C11400.8 5109.31 11621.5 5146.83 11821.6 5221.88C12021.8 5296.93 12194.7 5408.04 12340.4 5555.2C12486.1 5702.36 12599.4 5884.1 12680.3 6100.42C12761.2 6315.28 12801.7 6561.77 12801.7 6839.9V7109.2H9854.85V6482.3H11797.4C11795.9 6367.52 11768.7 6265.24 11715.7 6175.47C11662.7 6085.71 11589.9 6015.81 11497.2 5965.77C11405.9 5914.27 11300.7 5888.51 11181.5 5888.51C11060.8 5888.51 10952.7 5915.74 10857 5970.19C10761.4 6023.16 10685.6 6096.01 10629.6 6188.72C10573.7 6279.96 10544.3 6383.7 10541.4 6499.96V7137.89C10541.4 7276.22 10568.6 7397.63 10623 7502.11C10677.5 7605.12 10754.7 7685.33 10854.8 7742.72C10954.9 7800.11 11074.1 7828.81 11212.4 7828.81C11308.1 7828.81 11394.9 7815.56 11472.9 7789.07C11550.9 7762.59 11617.8 7723.59 11673.7 7672.08C11729.7 7620.58 11771.6 7557.3 11799.6 7482.25L12790.7 7510.94C12749.5 7733.15 12659 7926.67 12519.2 8091.49C12380.8 8254.83 12199.1 8382.12 11973.9 8473.36C11748.8 8563.13 11488.3 8608.01 11192.5 8608.01ZM12607.1 8544V5153.45H13655.6V5771.52H13690.9C13752.7 5547.84 13853.5 5381.55 13993.3 5272.65C14133.1 5162.28 14295.7 5107.1 14481.2 5107.1C14531.2 5107.1 14582.7 5110.78 14635.7 5118.14C14688.7 5124.02 14738 5133.59 14783.6 5146.83V6084.97C14732.1 6067.31 14664.4 6053.33 14580.5 6043.03C14498.1 6032.73 14424.5 6027.58 14359.8 6027.58C14231.7 6027.58 14116.2 6056.28 14013.2 6113.67C13911.7 6169.59 13831.5 6248.32 13772.6 6349.86C13715.2 6449.93 13686.5 6567.65 13686.5 6703.04V8544H12607.1ZM14477.5 8544V4023.27H15556.9V5734H15579C15623.1 5630.99 15685.7 5531.65 15766.6 5436C15849 5340.35 15953.5 5262.35 16080 5202.02C16208.1 5140.21 16361.1 5109.31 16539.2 5109.31C16774.6 5109.31 16994.6 5171.11 17199.2 5294.73C17405.2 5418.34 17571.5 5608.91 17698.1 5866.44C17824.6 6123.97 17887.9 6452.13 17887.9 6850.93C17887.9 7235.02 17826.8 7556.56 17704.7 7815.56C17584 8074.56 17420.7 8268.81 17214.6 8398.31C17010.1 8527.81 16782.7 8592.56 16532.6 8592.56C16361.8 8592.56 16214 8564.6 16088.9 8508.68C15963.8 8452.76 15858.6 8379.18 15773.2 8287.94C15689.3 8196.7 15624.6 8098.84 15579 7994.36H15545.9V8544H14477.5ZM15534.8 6848.73C15534.8 7031.2 15559.1 7190.14 15607.7 7325.52C15657.7 7460.91 15729.1 7566.13 15821.8 7641.18C15916 7714.76 16028.5 7751.55 16159.5 7751.55C16291.9 7751.55 16404.5 7714.76 16497.2 7641.18C16589.9 7566.13 16659.8 7460.91 16706.9 7325.52C16755.5 7190.14 16779.8 7031.2 16779.8 6848.73C16779.8 6666.25 16755.5 6508.05 16706.9 6374.14C16659.8 6240.22 16589.9 6136.48 16497.2 6062.9C16406 5989.32 16293.4 5952.53 16159.5 5952.53C16027.1 5952.53 15914.5 5988.58 15821.8 6060.69C15729.1 6132.8 15657.7 6235.81 15607.7 6369.72C15559.1 6503.64 15534.8 6663.31 15534.8 6848.73Z" fill="#2474FF"/>
</svg>
